<?xml version="1.0" encoding="UTF-8" standalone="no"?>
<!-- Created with Inkscape (http://www.inkscape.org/) -->

<svg
   version="1.1"
   id="svg855"
   width="1365.12"
   height="1365.12"
   viewBox="0 0 1365.12 1365.12"
   sodipodi:docname="logo.svg"
   inkscape:version="1.1.1 (3bf5ae0d25, 2021-09-20)"
   xmlns:inkscape="http://www.inkscape.org/namespaces/inkscape"
   xmlns:sodipodi="http://sodipodi.sourceforge.net/DTD/sodipodi-0.dtd"
   xmlns="http://www.w3.org/2000/svg"
   xmlns:svg="http://www.w3.org/2000/svg">
  <defs
     id="defs859" />
  <sodipodi:namedview
     id="namedview857"
     pagecolor="#ffffff"
     bordercolor="#666666"
     borderopacity="1.0"
     inkscape:pageshadow="2"
     inkscape:pageopacity="0.0"
     inkscape:pagecheckerboard="0"
     showgrid="false"
     inkscape:zoom="0.6087377"
     inkscape:cx="681.73863"
     inkscape:cy="681.73863"
     inkscape:window-width="1920"
     inkscape:window-height="1017"
     inkscape:window-x="-8"
     inkscape:window-y="-8"
     inkscape:window-maximized="1"
     inkscape:current-layer="g861" />
  <g
     inkscape:groupmode="layer"
     inkscape:label="Image"
     id="g861">
    <path
       style="fill:#000000;stroke-width:0.48"
       d="m 853.68,1091.7076 c -12.66653,-0.7836 -32.29709,-4.6656 -48.48,-9.587 -1.32,-0.4014 -3.156,-0.9204 -4.08,-1.1533 -1.82016,-0.4587 -7.66138,-2.4541 -9.6,-3.2795 -0.66,-0.281 -3.684,-1.4839 -6.72,-2.6732 -3.036,-1.1894 -6.168,-2.4717 -6.96,-2.8497 -0.792,-0.3781 -4.248,-1.9529 -7.68,-3.4997 -15.52867,-6.9986 -31.95341,-17.4189 -47.5739,-30.1822 -3.93461,-3.2149 -14.02565,-13.2287 -17.1744,-17.043 -3.83002,-4.6395 -6.3218,-8.6057 -9.40104,-14.9636 -1.61079,-3.3259 -2.42693,-5.592 -2.32604,-6.4584 0.15312,-1.31546 0.20064,-1.28968 3.27538,1.7773 2.72102,2.7143 6.7957,6.2755 16.06046,14.0369 2.71373,2.2733 8.93448,6.5678 9.5138,6.5678 0.43752,0 1.477,0.8014 2.64619,2.04 0.85646,0.9073 2.27409,1.1131 2.71819,0.3946 0.15139,-0.245 -0.19723,-0.5955 -0.77482,-0.7788 -0.57753,-0.1833 -1.28265,-0.5239 -1.56696,-0.7568 -0.28425,-0.2329 -3.26155,-2.5881 -6.61612,-5.2336 -6.98804,-5.5111 -17.80911,-16.192 -20.55202,-20.2858 -1.70179,-2.53992 -2.04163,-4.1796 -0.8663,-4.1796 0.43824,0 5.39942,2.98584 11.32761,6.8174 13.55448,8.7607 35.71287,19.7208 47.86997,23.6778 1.056,0.3437 3.432,1.1885 5.28,1.8774 5.24698,1.956 15.61426,5.366 24.74894,8.1405 4.63378,1.4075 16.13736,4.2647 20.13106,5.0001 6.88426,1.2677 11.58398,2.0582 14.88,2.5027 1.98,0.267 5.544,0.8343 7.92,1.2606 5.73197,1.0285 33.05736,1.1946 40.56,0.2467 10.44091,-1.3192 21.50688,-3.715 32.4,-7.0146 2.904,-0.8797 5.712,-1.714 6.24,-1.8541 0.9336,-0.2477 8.36501,-2.9533 12.72,-4.6312 4.6669,-1.798 13.99589,-6.0712 19.44,-8.9046 6.4812,-3.3732 11.70298,-6.7318 21.27235,-13.6819 2.72376,-1.9782 5.43216,-3.9208 6.01863,-4.3168 2.57395,-1.738 9.38803,-7.12118 14.22902,-11.24102 6.7439,-5.73927 20.3566,-20.65085 25.6697,-28.11898 1.0329,-1.452 2.5919,-3.45062 3.4642,-4.44139 0.8724,-0.99077 1.5861,-2.09832 1.5861,-2.4612 0,-0.36293 0.3624,-0.95631 0.8053,-1.31866 0.443,-0.3623 2.1989,-2.81875 3.9021,-5.45875 1.7032,-2.64 3.5406,-5.2883 4.0831,-5.88509 0.5425,-0.59678 1.4326,-1.82837 1.9779,-2.73681 0.5454,-0.9085 2.2014,-3.44424 3.6801,-5.63496 3.4612,-5.1278 6.6715,-10.33436 6.6715,-10.81997 0,-0.20919 0.511,-1.13247 1.1355,-2.05176 1.2192,-1.79458 9.4245,-17.81722 9.4245,-18.40344 0,-0.19378 0.7276,-1.90839 1.6169,-3.81015 1.8573,-3.97176 2.8351,-6.35275 5.3623,-13.05782 0.9951,-2.64 2.3159,-6.03547 2.9351,-7.54555 0.6191,-1.51003 1.1257,-3.0012 1.1257,-3.31368 0,-0.31248 0.5202,-1.66896 1.156,-3.01445 1.2862,-2.72208 6.2203,-17.70802 8.1542,-24.76632 1.3546,-4.94419 4.3538,-17.44709 4.8359,-20.16 0.1642,-0.924 0.6007,-2.976 0.9698,-4.56 1.9852,-8.51707 3.6295,-21.58843 4.8306,-38.4 0.6731,-9.42053 0.7113,-13.08197 0.2604,-24.96 -0.4952,-13.04736 -1.7667,-27.98218 -2.9424,-34.56 -0.2831,-1.584 -0.8225,-4.608 -1.1986,-6.72 -0.8194,-4.60032 -2.2478,-10.76165 -3.561,-15.36 -0.5277,-1.848 -1.3909,-4.89792 -1.9181,-6.77765 -1.3294,-4.73971 -7.7414,-22.06776 -10.1029,-27.30235 -3.3225,-7.36488 -8.887,-18.25397 -11.2832,-22.08 -5.3642,-8.56493 -13.5865,-20.18578 -16.9956,-24.0205 -0.9488,-1.06732 -2.5891,-2.99966 -3.6451,-4.29417 -5.3229,-6.52507 -9.5873,-10.99349 -20.39,-21.36533 -7.34061,-7.04779 -21.03875,-17.85677 -29.36099,-23.16816 -6.28378,-4.0105 -20.50805,-11.24592 -25.60901,-13.02653 -1.848,-0.64507 -4.45958,-1.59 -5.80354,-2.09976 -5.05276,-1.91659 -14.41483,-4.54728 -19.33684,-5.43355 -9.67412,-1.74187 -15.20343,-2.32608 -28.85962,-3.04915 -2.71123,-0.14357 -17.18746,1.01573 -20.4,1.63363 -1.32,0.25392 -3.804,0.71506 -5.52,1.0248 -6.65419,1.20101 -16.36891,4.09032 -22.08,6.56688 -13.17571,5.71354 -37.49966,18.41765 -47.52,24.81917 -0.924,0.5903 -3.732,2.33011 -6.24,3.86621 -10.03435,6.14582 -21.9085,14.44497 -22.70928,15.87211 -0.41827,0.74539 -0.0149,2.59435 0.56635,2.59435 0.19383,0 2.44123,1.35 4.99426,3 6.1727,3.98938 10.72742,6.6 11.51486,6.6 0.35299,0 0.84701,0.20376 1.09781,0.45283 0.2508,0.24907 2.38205,1.66109 4.73611,3.13781 4.82045,3.0239 11.09784,7.64251 11.66472,8.5824 0.20635,0.34214 1.06023,1.01971 1.89754,1.50576 0.83731,0.48605 1.79184,1.38715 2.12112,2.00246 0.32933,0.61532 0.79344,1.11874 1.03137,1.11874 0.23799,0 1.81152,1.46976 3.4968,3.26616 2.9065,3.09821 4.19189,4.6643 7.2877,8.87914 0.73733,1.00387 1.93464,2.54438 2.66064,3.42336 0.726,0.87892 1.32,1.91841 1.32,2.31 0,0.39153 0.432,1.26105 0.96,1.93233 0.528,0.67123 0.96,1.54781 0.96,1.94789 0,0.40013 0.54,1.3692 1.2,2.15357 0.66,0.78437 1.2,1.58827 1.2,1.78646 0,0.19819 0.756,1.93215 1.68,3.8532 0.924,1.92111 1.68,3.84067 1.68,4.26581 0,0.42509 0.35146,1.57598 0.78106,2.55749 3.25012,7.42593 5.34235,23.48971 4.48363,34.42459 -0.92688,11.80243 -2.92363,23.36554 -5.0148,29.04 -0.43781,1.188 -1.00498,3.00014 -1.26043,4.02701 -0.53784,2.16225 -2.19048,7.29177 -2.80066,8.69299 -0.22992,0.528 -0.90322,2.58 -1.49621,4.56 -2.04926,6.8425 -7.39017,19.90862 -14.02872,34.32 -3.75821,8.15861 -15.84787,31.60382 -16.97424,32.91778 -0.35731,0.41678 -0.64963,0.9828 -0.64963,1.25774 0,0.27494 -1.026,1.92038 -2.28,3.65654 -1.254,1.73616 -2.65181,3.7622 -3.10627,4.50231 -0.45442,0.74011 -1.10242,1.77283 -1.44,2.29497 -0.33754,0.52215 -1.63378,2.57415 -2.88053,4.56 -2.78155,4.43055 -4.00171,6.21932 -6.00677,8.80628 -0.85445,1.10241 -2.34302,3.13838 -3.30797,4.52438 -0.96489,1.386 -1.89321,2.52 -2.06294,2.52 -0.16968,0 -0.72168,0.702 -1.22659,1.56 -0.77482,1.31654 -2.60967,3.85118 -6.68899,9.24 -0.96308,1.27219 -3.78744,4.84642 -5.56916,7.0477 -0.78691,0.97228 -1.43078,1.95787 -1.43078,2.19024 0,0.23232 -0.648,1.04328 -1.44,1.80206 -0.792,0.75878 -1.44,1.58069 -1.44,1.82645 0,0.24576 -0.66149,1.23134 -1.46995,2.19019 -0.80851,0.95885 -1.89346,2.28336 -2.41109,2.94336 -0.51758,0.66 -1.53955,1.956 -2.27112,2.88 -0.73152,0.924 -1.6932,2.2583 -2.1371,2.96506 -0.44391,0.7068 -2.2704,3.14596 -4.05893,5.4204 -1.78848,2.27443 -4.22381,5.43734 -5.41181,7.02868 -1.188,1.59135 -3.34886,4.44418 -4.80192,6.3396 -1.45306,1.89543 -3.24038,4.31026 -3.97181,5.36626 -2.55605,3.69019 -10.11437,13.62144 -13.51651,17.76 -4.91698,5.98133 -23.07874,25.30546 -28.42109,30.24 -2.85816,2.64 -7.46736,7.16237 -10.24267,10.04971 -19.14816,19.92111 -35.36386,35.08209 -47.286,44.21049 -5.59229,4.2818 -18.6264,12.8852 -26.73701,17.6484 -3.51062,2.0617 -6.70699,3.9399 -7.10299,4.1738 -15.08674,8.9132 -35.78789,17.8754 -52.08,22.5474 -5.65805,1.6225 -17.34782,4.4361 -21.12,5.0834 -9.49997,1.6301 -19.50595,3.0497 -25.2,3.5753 -8.34888,0.7706 -28.30328,0.8064 -35.28,0.063 -8.70839,-0.9275 -22.93141,-3.4998 -30.48,-5.5123 -2.508,-0.6687 -6.72,-1.7799 -9.36,-2.4693 -9.36621,-2.4459 -20.47428,-6.4463 -30.79254,-11.0897 -0.8319,-0.3743 -1.66219,-0.6806 -1.8451,-0.6806 -0.80204,0 -23.07309,-11.3964 -27.95726,-14.3061 -7.04588,-4.1975 -11.01444,-6.7008 -13.0851,-8.2539 -0.924,-0.693 -4.26997,-3.1906 -7.4355,-5.55 -16.91266,-12.6062 -36.16484,-30.27749 -55.96885,-51.37296 -4.99645,-5.32224 -14.34291,-16.14192 -15.03131,-17.40053 -0.23961,-0.43809 -1.24024,-1.76851 -2.22363,-2.95651 -3.46417,-4.18498 -13.31579,-19.46539 -18.56801,-28.8 -0.5199,-0.924 -1.68044,-2.94307 -2.57898,-4.48675 -10.53149,-18.09346 -18.75931,-36.01584 -26.58686,-57.91325 -4.14853,-11.60544 -7.84144,-22.60891 -8.13526,-24.24 -0.19022,-1.056 -0.66606,-3 -1.05742,-4.32 -0.39137,-1.32 -0.89755,-3.156 -1.12487,-4.08 -0.22732,-0.924 -0.66427,-2.62872 -0.97102,-3.78826 -0.30674,-1.15953 -0.7313,-3.10353 -0.94346,-4.32 -0.21215,-1.21646 -0.92719,-4.91174 -1.58896,-8.21174 -2.34182,-11.67778 -3.85367,-21.3539 -4.87487,-31.2 -0.36964,-3.564 -0.99962,-9.396 -1.39995,-12.96 -0.40032,-3.564 -0.9573,-9.288 -1.23773,-12.72 -0.28043,-3.432 -0.85916,-10.344 -1.28607,-15.36 -0.60406,-7.09747 -0.7082,-12.15379 -0.46962,-22.8 0.29291,-13.07011 1.39445,-36.64963 1.97329,-42.24 0.26843,-2.59243 1.24977,-12.84778 2.13581,-22.32 0.24695,-2.64 0.67849,-6.312 0.95898,-8.16 0.28049,-1.848 0.70914,-4.98 0.95256,-6.96 0.53622,-4.36162 1.28411,-9.41707 2.2013,-14.88 0.37675,-2.244 0.91996,-5.808 1.20712,-7.92 0.28717,-2.112 0.72096,-4.596 0.964,-5.52 0.39041,-1.48435 1.27004,-6.00326 5.27904,-27.12 0.55132,-2.904 1.40804,-7.008 1.90382,-9.12 0.49577,-2.112 1.33232,-5.784 1.85898,-8.16 2.66178,-12.0084 3.51674,-15.7945 4.66084,-20.64 0.68568,-2.904 1.41582,-6.036 1.62255,-6.96 1.60248,-7.16256 6.33415,-22.53091 8.57148,-27.84 0.27814,-0.66 1.29072,-3.468 2.25018,-6.24 0.95946,-2.772 2.26601,-6.39 2.90345,-8.04 0.63743,-1.65 1.72139,-4.458 2.40878,-6.24 3.8274,-9.92211 5.7014,-14.58333 6.90453,-17.17371 0.73921,-1.59155 1.93218,-4.29155 2.65105,-6 0.71886,-1.70846 3.22573,-7.08186 5.57082,-11.94089 2.34508,-4.85903 4.26379,-8.968 4.26379,-9.13106 0,-0.16305 1.188,-2.55451 2.64,-5.31434 1.452,-2.75983 2.64,-5.20478 2.64,-5.43323 0,-0.22844 0.432,-0.96455 0.96,-1.63579 0.528,-0.67124 0.96,-1.53597 0.96,-1.92162 0,-0.38564 0.41044,-1.27758 0.9121,-1.98208 0.50165,-0.70451 1.97678,-3.22185 3.27805,-5.5941 3.4889,-6.36032 4.46793,-8.02475 5.46817,-9.29634 0.49592,-0.63047 0.90168,-1.33342 0.90168,-1.56212 0,-0.2287 1.026,-2.01699 2.28,-3.97398 5.1984,-8.11262 7.16685,-11.15366 8.76,-13.53325 0.924,-1.38013 2.76,-4.17556 4.08,-6.21208 1.32,-2.03652 3.21,-4.65924 4.2,-5.82828 0.99,-1.16903 1.8,-2.29298 1.8,-2.49766 0,-0.20468 1.026,-1.69155 2.28,-3.30415 1.254,-1.61261 3.036,-3.93928 3.96,-5.17038 1.71869,-2.28992 3.79028,-4.91296 6.23516,-7.89494 1.90828,-2.3275 7.14736,-8.83978 8.88484,-11.04401 2.17393,-2.75795 8.89059,-10.65926 10.0336,-11.80328 0.55352,-0.55402 2.395,-2.60602 4.09218,-4.56 6.07926,-6.99915 24.39797,-24.72107 30.96138,-29.95271 3.64324,-2.904 7.80858,-6.2274 9.2563,-7.38535 3.31812,-2.65394 16.0974,-11.12285 21.08229,-13.97137 10.34408,-5.91091 27.19045,-14.53406 33.41425,-17.10373 1.518,-0.62675 4.11,-1.69575 5.76,-2.37555 9.75916,-4.02074 32.00405,-10.72539 40.68,-12.26102 1.452,-0.257 4.152,-0.76573 6,-1.13051 15.97133,-3.15261 42.45581,-3.49411 60.24,-0.77674 10.338,1.57962 13.15066,2.10392 19.50802,3.63651 9.53472,2.29857 18.26577,5.13164 24.41198,7.92124 11.09309,5.03486 15.75461,7.35698 23.63698,11.77469 3.76032,2.10751 7.45987,4.16951 8.22124,4.58223 10.74581,5.82512 20.10893,12.92487 41.99386,31.84257 23.74176,20.52275 40.55515,39.41561 47.59848,53.48538 1.55779,3.11177 2.09578,4.68831 1.88568,5.5255 -0.16195,0.64521 -0.061,1.31548 0.22488,1.49211 0.28536,0.17638 0.51888,0.67549 0.51888,1.10913 0,0.43364 1.08,3.01063 2.4,5.72664 1.32,2.71601 2.39366,5.42647 2.38594,6.02323 -0.0134,1.03201 -0.0779,1.01259 -1.32,-0.39734 -0.71828,-0.81531 -1.84594,-2.1699 -2.50594,-3.01019 -8.20397,-10.44514 -23.13365,-23.89479 -42.24379,-38.05597 -3.03807,-2.25131 -6.06207,-4.37722 -6.72,-4.72424 -0.65794,-0.34701 -1.30421,-0.78352 -1.43621,-0.97001 -0.132,-0.18649 -2.508,-1.80303 -5.28,-3.59231 -2.772,-1.78928 -5.58662,-3.6278 -6.25474,-4.08561 -0.66811,-0.4578 -2.07211,-1.30224 -3.12,-1.87652 -1.04788,-0.57428 -3.30926,-1.88772 -5.02526,-2.91876 -7.16266,-4.30359 -17.01907,-8.68937 -27.36,-12.17426 -10.2635,-3.45879 -15.8027,-4.75778 -24.96,-5.85329 -11.1503,-1.33394 -34.44629,-1.74488 -44.46058,-0.78428 -23.30904,2.23587 -57.35025,11.01446 -75.9422,19.58406 -1.93754,0.89307 -3.67736,1.62376 -3.86629,1.62376 -0.4918,0 -10.95437,5.37598 -16.61093,8.53518 -3.98474,2.22549 -11.14044,6.88144 -20.88191,13.58706 -2.72694,1.87712 -8.47323,6.55027 -14.63809,11.90437 -6.78609,5.89364 -26.64654,25.72253 -30.5859,30.5373 -1.51024,1.84585 -3.89945,4.76009 -5.30935,6.47609 -2.24205,2.7288 -4.87291,6.15996 -9.54052,12.44276 -0.70168,0.94448 -2.36834,3.33724 -3.7037,5.31724 -1.33536,1.98 -2.87112,4.248 -3.4128,5.04 -2.28921,3.34712 -4.24596,6.36674 -5.32988,8.22502 -6.86341,11.7666 -10.409,18.13703 -13.05435,23.45498 -0.78794,1.584 -1.61661,3.204 -1.84151,3.6 -0.22489,0.396 -1.07561,2.124 -1.89049,3.84 -0.81488,1.716 -2.10383,4.416 -2.86433,6 -8.2624,17.20941 -17.86101,40.36589 -22.08513,53.28 -0.86353,2.64 -1.75521,5.232 -1.98152,5.76 -0.22631,0.528 -0.71281,2.04 -1.08111,3.36 -0.3683,1.32 -1.03062,3.588 -1.47184,5.04 -4.61351,15.18288 -10.19821,36.10162 -11.98165,44.88 -2.9865,14.69995 -6.11108,32.26195 -6.9174,38.88 -0.28949,2.376 -0.77953,9.36518 -1.08899,15.5315 -0.58916,11.73994 -0.23865,21.13973 1.26441,33.9085 0.37292,3.168 1.02855,8.892 1.45696,12.72 1.49609,13.3679 1.65803,14.67106 2.38609,19.2 0.40317,2.508 1.07586,6.72 1.49486,9.36 0.62183,3.918 3.55055,19.16146 5.99446,31.2 0.26797,1.32 1.10908,4.668 1.86914,7.44 0.76006,2.772 2.37967,8.712 3.59912,13.2 1.21947,4.488 2.51392,9.024 2.87657,10.08 0.36265,1.056 1.56468,4.836 2.67117,8.4 1.10649,3.564 2.29508,7.02 2.6413,7.68 0.34622,0.66 1.16891,2.604 1.82819,4.32 0.65929,1.716 1.77726,4.416 2.48439,6 0.70713,1.584 2.68276,6.22555 4.39029,10.31458 3.80674,9.11596 3.71944,8.941 8.62437,17.28542 7.34284,12.4919 20.08028,30.20736 26.78943,37.25923 0.53335,0.56059 2.37275,2.61259 4.08757,4.56 8.44132,9.58632 20.11059,20.80584 27.17474,26.12741 5.27957,3.97723 15.95803,11.11579 20.84099,13.93224 6.99374,4.03387 21.56697,11.09506 26.62642,12.90125 1.32,0.47126 3.048,1.12469 3.84,1.45205 9.56425,3.95356 26.30122,7.56504 39.12,8.44123 6.81178,0.4656 19.91477,-0.009 21.13858,-0.76488 0.2016,-0.12461 2.06188,-0.54475 4.13395,-0.93375 7.53523,-1.41446 14.10835,-3.32419 23.74728,-6.89947 9.1884,-3.40819 26.42937,-12.93096 33.73848,-18.63489 1.2971,-1.01223 3.16243,-2.38042 4.14523,-3.04042 0.9828,-0.66 3.0995,-2.28 4.70371,-3.6 1.60426,-1.32 4.46434,-3.588 6.35578,-5.04 1.89144,-1.452 4.11355,-3.22354 4.938,-3.93672 2.03121,-1.75709 9.03235,-7.11826 12.41899,-9.5099 1.518,-1.07204 2.76,-2.14253 2.76,-2.37893 0,-0.23635 0.48576,-0.58392 1.07942,-0.77237 0.59372,-0.1884 2.48372,-1.68638 4.2,-3.3288 1.71634,-1.64242 3.61968,-3.24542 4.22972,-3.56222 0.72974,-0.37901 1.05811,-0.9216 0.96,-1.58631 -0.16244,-1.10025 -0.87394,-1.33877 -9.74914,-3.26808 -2.64,-0.57389 -6.41491,-1.56633 -8.38867,-2.2055 -4.58429,-1.48455 -13.62322,-5.87847 -16.01347,-7.78435 -1.01314,-0.80789 -2.25514,-1.59994 -2.76,-1.76021 -0.50482,-0.16023 -0.91786,-0.47405 -0.91786,-0.69744 0,-0.22335 -0.918,-1.07688 -2.04,-1.89672 C 565.05984,837.258 556.03214,827.25926 553.12387,822.85478 547.12282,813.76637 543.42725,802.9284 542.6028,792 c -0.49301,-6.5353 -0.35246,-20.73931 0.24706,-24.96 0.28118,-1.98 0.7344,-6.084 1.00704,-9.12 0.5556,-6.18614 2.18836,-14.7865 4.37409,-23.04 1.32211,-4.99229 2.14426,-7.40285 4.01083,-11.76 0.33927,-0.792 1.32591,-3.276 2.19255,-5.52 0.86659,-2.244 2.38085,-5.808 3.36499,-7.92 0.98419,-2.112 2.12726,-4.596 2.54026,-5.52 0.41299,-0.924 1.94472,-3.84 3.40387,-6.48 1.4591,-2.64 3.03177,-5.55878 3.49473,-6.48614 0.46296,-0.92736 1.32778,-2.36472 1.92178,-3.19412 0.594,-0.82934 1.0813,-1.6906 1.08293,-1.91385 0,-0.22325 0.98741,-1.80989 2.19072,-3.52589 1.20331,-1.716 2.55197,-3.65976 2.99707,-4.31952 1.27469,-1.88933 8.3448,-11.25398 8.6977,-11.52048 0.17481,-0.132 0.82694,-0.996 1.44912,-1.92 0.62222,-0.924 1.3678,-1.896 1.65691,-2.16 0.28905,-0.264 2.68555,-3.17698 5.32555,-6.47328 2.64,-3.2963 6.86203,-8.3723 9.38227,-11.28 2.52024,-2.9077 5.93136,-6.95266 7.58031,-8.98877 11.63404,-14.36582 21.68976,-24.99216 28.39742,-30.00893 5.82715,-4.3582 5.87117,-4.39766 15.84,-14.20108 10.07818,-9.91095 13.37357,-12.7321 13.89211,-11.89306 0.20223,0.32722 0.50141,2.63069 0.66485,5.11882 0.32669,4.97332 1.02278,6.81384 3.1499,8.32848 1.5158,1.07932 4.37314,1.35816 4.37314,0.42672 0,-0.31412 -0.25282,-1.79506 -0.56179,-3.29103 -0.51941,-2.51467 -0.48111,-2.85048 0.50784,-4.45061 1.12185,-1.81512 3.46425,-3.7907 6.29395,-5.30822 4.56077,-2.44584 13.85798,-8.52754 15.77784,-10.32096 1.61654,-1.51008 1.61266,-2.5883 -0.0125,-3.45802 -1.25813,-0.67329 -2.10998,-0.3372 -8.66846,3.42029 -6.48572,3.71573 -10.97021,5.40523 -11.34288,4.2733 -0.12557,-0.38151 -0.94964,-1.41725 -1.8312,-2.30165 -0.88157,-0.8844 -1.60287,-1.90795 -1.60287,-2.27458 0,-0.72288 5.21232,-8.32574 7.04592,-10.27742 0.62007,-0.66 1.8264,-1.96901 2.68075,-2.9089 2.45544,-2.70129 8.08532,-7.71993 12.13004,-10.813 9.73022,-7.44092 11.60304,-8.88447 24.23184,-18.6781 2.04259,-1.584 7.68225,-6.02083 12.5326,-9.85958 9.03207,-7.14836 14.31024,-11.02042 15.02237,-11.02042 0.22099,0 1.45411,-0.756 2.74027,-1.68 1.28612,-0.924 2.45026,-1.68 2.58696,-1.68 0.13666,0 2.02618,-0.83986 4.19885,-1.86634 8.71834,-4.11897 16.42637,-7.21382 24.1104,-9.68064 1.848,-0.59328 4.116,-1.3488 5.04,-1.67889 0.924,-0.33015 3.516,-1.17567 5.76,-1.87896 2.244,-0.7033 4.836,-1.56048 5.76,-1.90483 0.924,-0.3444 2.868,-1.01002 4.32,-1.47912 2.41613,-0.78058 7.13712,-2.66256 14.64,-5.83599 10.75263,-4.54797 19.32763,-9.03503 27.01234,-14.13477 8.29147,-5.5024 12.47232,-8.82876 16.42766,-13.07005 1.716,-1.84006 3.984,-4.26057 5.04,-5.37892 1.056,-1.11833 2.892,-3.25044 4.08,-4.738 1.8889,-2.36521 6.4393,-6.37201 10.28443,-9.0559 1.374,-0.95904 1.60133,-2.3165 0.53597,-3.20065 -0.72705,-0.60342 -6.3036,-0.3965 -12.67344,0.47025 -5.6976,0.77528 -8.79677,4.20885 -5.38939,5.97087 1.08067,0.55883 1.34309,0.96981 1.15718,1.81233 -0.61075,2.7683 -4.51104,8.99655 -7.94932,12.69404 -5.76327,6.19779 -20.39463,16.06889 -27.00312,18.21776 -1.32125,0.42963 -2.72631,1.05285 -3.12231,1.38493 -0.6756,0.56656 -1.84411,1.08223 -10.32,4.55422 -6.57245,2.69229 -14.45592,5.66478 -18.24,6.87744 -2.112,0.67685 -8.268,2.78141 -13.68,4.67688 -5.412,1.89548 -10.812,3.76052 -12,4.14456 -1.188,0.3841 -3.04766,1.11264 -4.13256,1.61904 -1.08494,0.5064 -2.17752,0.92074 -2.42793,0.92074 -0.25047,0 -3.10863,1.30282 -6.35151,2.89512 -8.86401,4.3524 -16.25765,9.20923 -26.688,17.53118 -5.08061,4.05365 -15.70089,11.98724 -16.89465,12.62069 -0.58004,0.30778 -2.00842,1.36815 -3.17415,2.35632 -1.16573,0.98818 -4.31841,3.38736 -7.00593,5.33155 -2.68752,1.9442 -5.14748,3.7802 -5.46648,4.08 -0.31906,0.29981 -1.65528,1.40914 -2.96943,2.46514 -7.94553,6.38482 -15.96936,14.25278 -24.96936,24.48432 -7.05768,8.02344 -21.0708,23.01 -23.51102,25.14413 -0.78701,0.68837 -2.83901,2.57083 -4.56,4.18329 -1.72095,1.61242 -5.28898,4.80735 -7.92898,7.09978 -8.26185,7.17418 -18.08073,18.06826 -26.86656,29.80848 -1.18541,1.584 -2.86137,3.82378 -3.72437,4.97726 -0.86299,1.15349 -3.51307,4.36047 -5.88907,7.12661 -5.08992,5.9257 -6.58392,7.72032 -12.94147,15.54495 -5.32709,6.55641 -6.78754,8.48352 -11.2788,14.88316 -3.45974,4.92975 -6.23702,9.40551 -12.6263,20.34802 -2.70384,4.63075 -8.85989,17.0125 -12.40983,24.96 -1.2971,2.904 -2.67331,5.928 -3.05827,6.72 -0.38491,0.792 -0.91627,2.034 -1.1807,2.76 -0.77487,2.12702 -1.46463,1.5337 -1.46463,-1.25986 0,-7.68768 4.3933,-26.0411 8.86162,-37.02014 4.18051,-10.27186 10.74149,-22.4171 19.44763,-36 2.03054,-3.168 4.64568,-7.26912 5.81136,-9.11357 1.16568,-1.84445 3.73939,-5.67523 5.71939,-8.5128 8.63381,-12.37344 11.57011,-16.5288 12.47448,-17.65363 0.53064,-0.66 2.01159,-2.53574 3.29093,-4.16827 2.61178,-3.33288 6.2389,-6.87173 7.04309,-6.87173 0.29203,0 1.04937,-0.702 1.68297,-1.56 3.30245,-4.47202 22.385,-24.72149 34.03575,-36.11707 5.12995,-5.01759 13.44595,-13.1485 18.48,-18.06864 5.034,-4.92015 10.23278,-9.86895 11.55278,-10.99738 1.32,-1.12838 3.48,-3.05832 4.8,-4.28875 7.41581,-6.91238 20.37427,-18.5917 24.41823,-22.00776 5.90707,-4.98994 12.98457,-11.73274 26.24616,-25.00478 12.94867,-12.95886 22.2084,-21.82631 28.53561,-27.32659 1.32,-1.14748 3.48,-3.02858 4.8,-4.1802 1.32,-1.15162 4.53115,-3.83943 7.13583,-5.9729 2.60472,-2.13348 4.999,-4.13934 5.32065,-4.45749 0.32165,-0.31814 1.95303,-1.55044 3.6253,-2.73844 1.67232,-1.188 3.81403,-2.81527 4.75939,-3.61616 2.59834,-2.20126 5.20334,-4.06384 5.68368,-4.06384 0.23587,0 1.49227,-0.98388 2.79202,-2.1864 2.3147,-2.14153 7.56585,-5.9736 8.18577,-5.9736 0.17242,0 0.89971,-0.61344 1.61621,-1.3632 1.52093,-1.59148 5.09333,-3.845 13.27666,-8.37503 7.46942,-4.13485 6.87772,-3.88885 20.56454,-8.55024 12.95035,-4.41059 18.50928,-5.58985 38.64,-8.19703 6.6731,-0.86425 37.32595,-0.69589 45.6,0.25047 15.05707,1.72217 27.0361,3.9478 39.03307,7.25211 11.53757,3.17778 37.4953,12.27736 42.56693,14.922 0.66002,0.34416 2.60402,1.22619 4.32002,1.96006 2.7014,1.1553 7.5716,3.59572 19.92,9.98175 1.584,0.81918 3.42,1.83777 4.08,2.26354 0.66,0.42577 4.224,2.55602 7.92,4.7339 9.278,5.46708 22.7673,14.79291 30.2041,20.88167 25.6856,21.02952 43.8759,42.68693 58.0547,69.12 4.4241,8.24774 5.7917,11.34586 7.5219,17.04 1.9434,6.39538 5.8472,18.28973 7.6407,23.28 3.3513,9.32462 8.0718,25.33488 10.5437,35.76 2.8503,12.0217 2.8802,12.1609 3.93,18.24 0.5243,3.036 1.2909,6.816 1.7035,8.4 1.591,6.10661 5.0465,33.28526 6.408,50.4 0.9534,11.98574 0.4091,43.86883 -0.9558,55.97914 -0.279,2.4755 -0.7393,6.66086 -1.0228,9.30086 -0.2836,2.64 -0.9385,7.716 -1.4555,11.28 -0.5169,3.564 -1.2462,8.64 -1.6204,11.28 -0.8445,5.95762 -1.6761,10.35931 -3.3552,17.76 -0.7187,3.168 -1.5035,6.90926 -1.7439,8.31394 -0.5467,3.19521 -6.2938,25.87915 -7.8656,31.04606 -5.6853,18.6889 -6.2598,20.45371 -8.4372,25.92 -0.7362,1.848 -1.907,4.872 -2.6018,6.72 -0.6948,1.848 -1.5628,4.008 -1.9289,4.8 -0.3661,0.792 -1.4578,3.492 -2.4259,6 -0.9681,2.508 -2.15,5.424 -2.6263,6.48 -0.4764,1.056 -1.4428,3.31781 -2.1476,5.02627 -0.7047,1.70847 -1.8887,4.40847 -2.6309,6 -0.7423,1.59154 -1.893,4.18973 -2.557,5.77373 -1.3232,3.15581 -11.4744,23.44742 -12.1967,24.38016 -0.247,0.31891 -0.9572,1.55184 -1.5782,2.73984 -0.9423,1.80245 -4.6386,8.33208 -6.4632,11.41757 -0.2675,0.45235 -1.3475,2.29617 -2.4,4.09742 -1.0526,1.8012 -2.1323,3.6372 -2.3995,4.08 -0.2672,0.44275 -1.4117,2.37274 -2.5434,4.2888 -2.5679,4.34794 -11.1448,17.1564 -14.6099,21.81811 -1.4301,1.92394 -4.1103,5.5501 -5.956,8.0581 -8.4609,11.49658 -23.0453,27.4547 -33.7784,36.96 -1.9377,1.716 -5.0493,4.5515 -6.9147,6.3012 -14.6962,13.7836 -30.80145,25.3967 -52.83182,38.0958 -16.90339,9.7437 -34.20533,17.2485 -53.04,23.0062 -12.21739,3.7348 -15.70714,4.4824 -32.64,6.9923 -5.59171,0.8289 -9.69658,1.0611 -20.88,1.181 -7.656,0.082 -15.216,0.069 -16.8,-0.029 z m -117.24,-61.9455 c -0.33,-0.1332 -0.87,-0.1332 -1.2,0 -0.33,0.1331 -0.06,0.2421 0.6,0.2421 0.66,0 0.93,-0.109 0.6,-0.2421 z m -4.26763,-2.045 c -0.8292,-0.5056 -1.65192,-1.1528 -1.82832,-1.4382 -0.1764,-0.2854 -0.64738,-0.5189 -1.04664,-0.5189 -0.64531,0 -0.64599,0.08 -0.006,0.72 0.396,0.396 0.92832,0.72 1.18296,0.72 0.25459,0 0.58723,0.324 0.7392,0.72 0.15197,0.396 0.7691,0.7192 1.37136,0.7182 0.9971,0 0.96019,-0.084 -0.41256,-0.9211 z m -154.63354,-3.8609 c 1.66431,-0.6893 4.50624,-3.2511 4.07976,-3.6776 -0.20635,-0.2064 -1.06901,-0.086 -1.91693,0.2678 -0.84792,0.3537 -2.33289,0.7428 -3.2999,0.8648 -1.42646,0.1798 -1.8599,0.032 -2.2969,-0.7848 -0.78225,-1.4616 -1.66737,-1.2492 -3.80889,0.9138 -1.77855,1.7964 -1.83394,1.934 -0.85858,2.1328 0.57346,0.1169 1.90661,0.4227 2.96261,0.6795 1.98715,0.4833 3.25037,0.3859 5.13883,-0.3963 z m -78.33883,-4.75 c 8.92843,-1.9027 12.33605,-2.9026 18.61685,-5.4627 1.7328,-0.7064 2.48813,-1.2701 2.38315,-1.7788 -0.20885,-1.0122 -3.74698,-0.8614 -8.76,0.3731 -2.112,0.5202 -5.352,1.32 -7.2,1.7774 -6.35981,1.5742 -11.54213,2.1997 -20.4,2.4622 -8.99769,0.2667 -12.57523,-0.031 -24.20291,-2.0134 -4.59241,-0.783 -5.78625,-0.506 -4.78088,1.1092 0.57366,0.9216 5.95216,2.9254 7.95254,2.9628 0.70882,0.013 1.89419,0.2542 2.63416,0.5355 2.82053,1.0724 7.00222,1.3478 17.91709,1.1799 9.01152,-0.1386 12.19704,-0.3689 15.84,-1.1452 z m 76.8,-1.8056 c 0,-0.6693 0.39005,-0.7302 2.76,-0.431 5.8104,0.7337 6.38952,0.635 9.1631,-1.5606 1.40972,-1.1159 2.75204,-2.029 2.98301,-2.029 0.79162,0 9.74343,-6.4946 14.61389,-10.6025 5.08238,-4.28662 6.76488,-6.08628 7.63051,-8.16185 0.90922,-2.18002 0.57816,-3.50583 -1.52798,-6.11991 -1.64914,-2.04676 -1.71907,-2.07844 -3.89093,-1.7626 -2.44958,0.3563 -4.3716,1.37884 -4.3716,2.32584 0,0.33926 0.85272,1.25232 1.8949,2.02896 5.77948,4.30684 3.29332,7.39771 -13.1749,16.37946 -3.432,1.8718 -6.78,3.5617 -7.44,3.7552 -1.20979,0.3548 -10.56,6.3166 -10.56,6.7332 0,0.1234 0.432,0.2242 0.96,0.2242 0.56587,0 0.96,-0.32 0.96,-0.7794 z m -40.56,-6.6959 c 1.32,-0.4097 3.68861,-0.9595 5.26354,-1.2219 1.57492,-0.2624 3.08692,-0.6598 3.36,-0.8831 0.27307,-0.2232 1.80729,-0.8345 3.40939,-1.3582 3.67973,-1.203 11.13513,-4.8509 14.69347,-7.18961 3.35006,-2.20176 7.75253,-5.65349 14.87362,-11.6616 12.19032,-10.28506 22.00132,-15.23242 34.23998,-17.26618 1.584,-0.26318 4.932,-0.82075 7.44,-1.23902 2.508,-0.41827 5.964,-1.07309 7.68,-1.45517 1.716,-0.38208 4.2,-0.90202 5.52,-1.15541 2.36554,-0.45408 5.62291,-1.26259 10.8,-2.68075 3.46834,-0.95006 9.34834,-3.36293 11.49264,-4.7161 0.93902,-0.59256 2.24736,-1.24656 2.90736,-1.45329 0.66,-0.20674 2.064,-0.95794 3.12,-1.6693 1.056,-0.71141 2.25566,-1.4148 2.66597,-1.56312 0.41025,-0.14832 2.32632,-1.31865 4.25789,-2.60078 1.93161,-1.28213 3.84499,-2.54717 4.25198,-2.81117 4.25443,-2.75952 15.43056,-11.8212 20.98416,-17.01408 4.29907,-4.01981 11.2619,-11.20666 11.27213,-11.63482 0.005,-0.18091 2.72323,-3.42091 6.04205,-7.2 3.31876,-3.77908 7.29321,-8.5991 8.83204,-10.7111 1.53884,-2.112 3.68348,-4.73304 4.76583,-5.82456 1.0824,-1.09152 1.96795,-2.11584 1.96795,-2.27635 0,-0.33514 1.29206,-1.8936 4.18642,-5.04951 2.01648,-2.19873 2.96308,-4.31908 1.09358,-2.44958 -0.528,0.528 -0.96,1.068 -0.96,1.2 0,0.30931 -1.84598,2.16 -2.15453,2.16 -0.54,0 -2.16547,1.70141 -2.16547,2.26666 0,0.33734 -0.18499,0.61334 -0.41107,0.61334 -0.51538,0 -8.3124,8.03179 -19.06075,19.63464 -4.88136,5.26944 -13.7174,13.91698 -17.72818,17.34994 -2.112,1.80777 -4.4052,3.78374 -5.09597,4.39113 -0.69081,0.60735 -1.97035,1.64429 -2.84342,2.30429 -0.87307,0.66 -2.68387,2.13293 -4.02399,3.27317 -2.33246,1.98451 -7.81344,5.84683 -8.29723,5.84683 -0.12715,0 -0.9095,0.486 -1.73856,1.08 -0.82901,0.594 -1.94237,1.30992 -2.47406,1.59091 -0.53175,0.28099 -3.34277,1.82952 -6.24677,3.44122 -5.68738,3.15643 -12.79949,6.12979 -17.04,7.12392 -1.452,0.34041 -3.504,0.83155 -4.56,1.09142 -4.48651,1.1041 -8.94307,1.99392 -13.44,2.68359 -11.02843,1.69132 -20.01077,3.82176 -24.70579,5.85969 -10.32384,4.48128 -16.28573,8.20387 -23.83632,14.88341 -2.93818,2.5992 -6.07018,5.32291 -6.96,6.05266 -0.88983,0.72974 -3.17736,2.59795 -5.08339,4.15152 -5.30348,4.32283 -15.33831,9.09876 -26.4552,12.59086 -3.69975,1.1622 -4.94204,2.2984 -3.89381,3.5615 0.7151,0.8617 1.08513,0.8556 4.05451,-0.066 z m -105.15125,-1.1528 c 1.41937,-0.5397 1.61369,-1.6993 0.39125,-2.3349 -0.462,-0.2402 -2.05587,-0.584 -3.54194,-0.7641 -2.2691,-0.275 -9.06281,-1.7863 -16.25806,-3.6168 -2.41632,-0.6147 -10.59076,-3.59916 -12.3502,-4.509 -0.82232,-0.42523 -2.45672,-1.09963 -3.63199,-1.4986 -2.15183,-0.73056 -12.64595,-5.55639 -16.65781,-7.66028 -8.72853,-4.57732 -8.34242,-4.35057 -16.26324,-9.55137 -2.47678,-1.62629 -5.06878,-3.26424 -5.76,-3.63999 -0.69122,-0.37574 -2.47126,-1.67174 -3.95564,-2.88 -4.04553,-3.29304 -6.25092,-4.9907 -7.60357,-5.85321 -0.66965,-0.42696 -3.87625,-3.18015 -7.12576,-6.11818 -6.65294,-6.01521 -7.6867,-6.73152 -8.30548,-5.75501 -0.66913,1.05591 -0.54285,1.3033 2.09369,4.1016 5.65222,5.9989 17.33338,15.61853 27.74193,22.84584 4.27695,2.96976 12.65175,8.02176 13.29807,8.02196 0.33,9e-5 0.6,0.19689 0.6,0.43732 0,0.24044 1.026,0.90375 2.28,1.47399 1.254,0.57019 2.604,1.22045 3,1.44499 3.14261,1.78186 14.75602,7.20124 15.47013,7.21914 0.33543,0.01 1.02915,0.3324 1.54161,0.72 0.51246,0.3876 1.23582,0.7047 1.60746,0.7047 0.37164,0 1.35636,0.3126 2.18826,0.6947 4.26269,1.9578 13.19597,4.541 19.75254,5.7118 2.376,0.4243 4.752,0.8593 5.28,0.9668 1.87339,0.3812 4.99492,0.3001 6.20875,-0.1614 z M 505.92,992.65973 c 5.31941,-0.91455 9.78854,-2.01015 21.84,-5.35387 4.53466,-1.25818 12.90888,-4.09676 15.36,-5.20652 0.528,-0.23904 3.12,-1.33372 5.76,-2.43268 2.64,-1.09892 5.124,-2.27592 5.52,-2.61557 0.396,-0.33965 1.24502,-0.77803 1.88674,-0.97416 0.64166,-0.19618 3.12566,-1.48023 5.52,-2.85351 2.39428,-1.37328 4.67726,-2.64691 5.07326,-2.83032 0.396,-0.1834 3.312,-1.92998 6.48,-3.88128 13.62595,-8.3927 25.97947,-14.98833 32.4,-17.29862 8.58974,-3.09086 14.77152,-4.82419 19.68,-5.51827 8.15966,-1.15378 11.03371,-1.82323 18.96,-4.41634 2.73341,-0.89424 7.14038,-2.74872 9.0288,-3.79934 0.47779,-0.26583 2.21774,-1.21171 3.86654,-2.10192 11.20311,-6.04896 20.65282,-14.00391 28.28189,-23.80824 3.06307,-3.93643 12.25133,-13.3884 18.56395,-19.09671 8.50359,-7.6895 20.48242,-18.98952 21.99216,-20.74584 0.86535,-1.00665 1.98831,-1.962 2.49543,-2.12299 1.2599,-0.39989 1.73165,-2.08886 0.83409,-2.98641 -1.05974,-1.05975 -2.17819,-0.50012 -6.71443,3.35952 -2.23872,1.90483 -5.11099,4.32734 -6.38275,5.38334 -1.27176,1.056 -2.65464,2.244 -3.0731,2.64 -0.41847,0.396 -5.18252,4.58573 -10.58674,9.31051 -11.91571,10.41768 -15.42408,13.77101 -19.63733,18.76949 -10.71153,12.708 -18.86069,19.15786 -32.66851,25.8564 -7.85424,3.81034 -14.95848,5.8861 -26.4,7.71374 -8.26301,1.31991 -9.12,1.23077 -9.12,-0.94896 0,-1.5046 3.47117,-11.69841 4.76318,-13.98801 0.27096,-0.48024 1.05178,-2.24909 1.73506,-3.93072 0.68333,-1.68168 1.77806,-3.90615 2.43283,-4.94333 0.65472,-1.03718 1.39738,-2.43005 1.65029,-3.09528 0.6803,-1.78934 5.00318,-6.52968 9.09864,-9.97723 6.3648,-5.35791 17.26949,-12.37661 21.29126,-13.70391 0.95444,-0.31502 1.84853,-0.75585 1.98682,-0.97963 0.45173,-0.73085 10.41562,-3.80107 17.04192,-5.2512 11.64998,-2.54947 17.96693,-5.39851 28.16088,-12.70085 1.8035,-1.29196 3.49512,-2.59286 3.75912,-2.89094 0.264,-0.29803 1.55899,-1.40098 2.87779,-2.45098 1.31875,-1.05 4.99075,-4.13683 8.16,-6.85958 3.1692,-2.72275 6.43747,-5.53075 7.26279,-6.24 0.82536,-0.70925 3.18854,-2.58552 5.25158,-4.16952 7.61179,-5.84429 16.02773,-13.81762 30.70339,-29.08858 5.67898,-5.90937 14.17671,-16.20979 20.14445,-24.41793 0.528,-0.72624 2.256,-3.09053 3.84,-5.25403 1.584,-2.16351 3.312,-4.63407 3.84,-5.49015 0.528,-0.85603 2.27131,-3.38184 3.87398,-5.61288 1.60272,-2.23104 3.33072,-4.74835 3.84,-5.59397 0.50933,-0.84566 2.43802,-4.0464 4.28602,-7.11278 4.03166,-6.68971 4.96853,-8.35714 7.68043,-13.66968 C 810.81595,744.86146 816,732.0083 816,730.83446 c 0,-0.39705 0.30173,-1.43121 0.67051,-2.29819 0.36879,-0.86693 1.15267,-3.30427 1.74202,-5.41627 0.58934,-2.112 1.36377,-4.812 1.72094,-6 0.35717,-1.188 0.87202,-3.75115 1.14413,-5.69582 0.27211,-1.94472 0.61229,-3.72605 0.75595,-3.95847 0.23333,-0.37752 0.48883,-2.77617 1.48296,-13.92149 0.20895,-2.3423 0.0658,-3.83068 -0.54552,-5.6711 -0.45585,-1.37242 -0.92635,-2.39774 -1.04563,-2.27851 -0.11923,0.11928 -0.7477,2.34725 -1.39661,4.9511 -0.64891,2.60386 -1.52688,5.52811 -1.95101,6.49839 -0.47784,1.09305 -0.67761,2.46244 -0.52526,3.6 0.38266,2.85686 -2.00362,19.69814 -3.09864,21.86904 -0.23117,0.4582 -0.61224,1.7542 -0.84691,2.88 -1.42608,6.84182 -7.18939,20.31072 -11.76154,27.48686 -1.34563,2.112 -2.65781,4.21085 -2.916,4.66411 -1.09819,1.92811 -9.77102,14.18122 -11.78304,16.64722 -1.20653,1.47878 -2.60851,3.33667 -3.11553,4.12867 -0.50708,0.792 -1.80754,2.628 -2.89004,4.08 -8.93409,11.98382 -12.08246,16.2684 -12.84072,17.47469 -2.08723,3.32045 -9.77476,11.75529 -16.34784,17.93697 -2.1407,2.01327 -6.37622,6.04724 -9.41222,8.96439 -6.20741,5.96448 -11.17488,10.34016 -17.73686,15.62395 -4.57085,3.6805 -7.7906,6.3755 -17.20383,14.4 -7.81397,6.66115 -10.81305,8.81909 -16.41931,11.814 -3.73858,1.99718 -11.95915,5.14906 -14.88,5.70514 -5.92118,1.12732 -22.04549,6.4895 -25.2,8.38027 -0.792,0.47472 -2.736,1.56993 -4.32,2.43384 -1.584,0.8639 -4.24714,2.56435 -5.91802,3.77875 -1.67092,1.2144 -3.97464,2.86387 -5.11929,3.66542 -1.14471,0.8016 -4.91184,3.881 -8.37139,6.84308 -5.90108,5.05243 -9.82964,7.65609 -18.85133,12.49353 -4.09935,2.19807 -9.9924,5.15189 -12.37997,6.20535 -0.924,0.40766 -2.004,0.9203 -2.4,1.13923 -0.396,0.21893 -2.556,1.41211 -4.8,2.65161 -5.90875,3.26367 -19.04208,10.82415 -21.84,12.57264 -1.32,0.82493 -2.88168,1.71274 -3.4704,1.97295 -0.58872,0.26021 -3.18072,1.73549 -5.76,3.27835 -2.57928,1.54291 -6.5256,3.74645 -8.7696,4.89682 -2.244,1.15036 -4.79741,2.49196 -5.67427,2.98132 -3.26299,1.82112 -16.69819,7.27426 -21.68573,8.80186 -1.188,0.36384 -3.672,1.12296 -5.52,1.68686 -8.7276,2.66328 -17.31883,3.8498 -28.08,3.87797 -18.78642,0.0493 -34.57129,-3.01944 -55.92,-10.87128 -1.848,-0.67968 -4.008,-1.43769 -4.8,-1.68451 -0.792,-0.24682 -1.872,-0.65669 -2.4,-0.91085 -0.528,-0.25416 -3.336,-1.46481 -6.24,-2.6904 -6.94192,-2.92963 -25.17494,-12.08529 -30.417,-15.27384 -2.27865,-1.386 -4.467,-2.66549 -4.863,-2.84328 -0.84556,-0.37963 -13.601,-9.1968 -15.64137,-10.81205 -10.98313,-8.69462 -16.81962,-13.42694 -18.28559,-14.82628 -0.60702,-0.57941 -2.67178,-2.387 -4.58836,-4.01679 -1.91657,-1.62984 -6.11022,-5.52974 -9.31922,-8.66649 -3.209,-3.1368 -6.03335,-5.70322 -6.27633,-5.70322 -0.24299,0 -0.91602,0.50482 -1.49563,1.12176 l -1.05384,1.12176 4.21017,4.0392 c 5.73169,5.49898 19.47447,17.66933 24.07149,21.31728 2.59335,2.05795 8.93174,6.96696 11.01041,8.52744 2.46203,1.84829 13.08148,8.91854 17.12827,11.40374 5.36072,3.29213 16.48561,9.49186 19.44,10.8336 0.924,0.41967 4.52412,2.14724 8.00026,3.83914 3.47614,1.69186 6.45799,3.07608 6.62633,3.07608 0.4068,0 4.48782,1.78085 6.06556,2.64682 1.98494,1.0895 17.2122,6.73252 22.26785,8.25216 16.86894,5.07057 28.64258,6.98524 43.2,7.02537 9.58752,0.0264 12.78038,-0.28157 22.56,-2.17637 4.91405,-0.95208 15.17938,-4.05969 18.85286,-5.70724 1.12906,-0.5064 2.25888,-0.92074 2.51074,-0.92074 1.48224,0 13.69445,-6.13776 25.1964,-12.66355 3.696,-2.09693 8.66093,-4.87906 11.03318,-6.18245 2.37226,-1.30339 4.85626,-2.74699 5.52,-3.20803 1.35231,-0.93931 12.44938,-7.15133 18.71295,-10.47533 11.82009,-6.27283 17.54779,-9.37829 19.13309,-10.37371 4.4938,-2.82168 4.963,-2.64399 3.1571,1.19563 -2.56694,5.45779 -2.98858,6.59506 -5.05176,13.62744 -1.09622,3.73642 -1.85698,7.96531 -1.53346,8.52427 0.80386,1.38893 -0.8734,2.55187 -10.8107,7.49573 -5.72021,2.84587 -11.4804,5.83085 -12.8004,6.63326 -1.32,0.80247 -5.316,3.24293 -8.88,5.42333 -3.564,2.18035 -8.856,5.37653 -11.76,7.10256 -2.904,1.72608 -6.036,3.6216 -6.96,4.21229 -0.924,0.59069 -3.56813,1.97688 -5.87582,3.0804 -2.30775,1.10347 -4.30368,2.18083 -4.43549,2.3941 -0.13181,0.21321 -0.83568,0.53472 -1.56418,0.71443 -0.72845,0.17971 -2.81155,1.06761 -4.62902,1.97318 -1.81747,0.90557 -3.65347,1.65379 -4.08,1.66272 -0.42653,0.009 -1.63949,0.43363 -2.69549,0.94373 -1.056,0.5101 -2.31936,0.93475 -2.80747,0.94373 -0.48807,0.009 -1.56807,0.32059 -2.4,0.69249 -0.83189,0.37196 -2.05253,0.79004 -2.71253,0.92914 -0.66,0.13906 -3.576,0.91925 -6.48,1.73376 -2.904,0.81446 -6.252,1.66915 -7.44,1.89926 -19.26494,3.73191 -26.99016,4.0872 -42.72,1.96488 -7.86612,-1.06132 -10.6636,-1.57646 -14.28,-2.62948 -1.386,-0.40359 -3.654,-1.04386 -5.04,-1.42282 -8.12291,-2.22096 -21.94131,-6.8063 -23.99349,-7.96171 -0.45842,-0.2581 -1.09222,-0.46925 -1.40845,-0.46925 -0.58094,0 -3.88725,-1.42027 -6.23212,-2.6771 -0.70073,-0.3756 -1.50249,-0.6829 -1.78169,-0.6829 -0.27919,0 -2.08186,-0.73786 -4.00593,-1.63968 -1.92408,-0.90182 -5.88362,-2.72011 -8.79898,-4.04069 -2.91536,-1.32053 -6.34954,-2.95867 -7.63149,-3.64032 -2.8394,-1.50974 -3.62785,-1.55429 -3.62785,-0.20501 0,1.8265 3.43308,4.39887 10.64476,7.97607 3.84717,1.90829 7.13449,3.46963 7.30515,3.46963 0.17066,0 1.65574,0.62323 3.30019,1.38499 5.26593,2.43927 9.59874,4.23442 14.0299,5.81275 2.376,0.84634 5.3748,1.94904 6.66401,2.4505 1.28921,0.50146 2.63188,0.91176 2.98372,0.91176 0.35183,0 1.34903,0.30077 2.21598,0.6683 5.56449,2.3593 25.66988,7.08687 33.97629,7.98922 6.73416,0.73152 24.55651,0.18442 31.2,-0.95779 z M 369.03338,951.74045 c -0.16082,-1.11096 -1.76365,-2.36664 -7.35338,-5.76077 -5.08417,-3.08712 -24.48978,-18.2953 -25.11406,-19.68187 -0.37041,-0.82272 -6.35235,-4.69781 -7.25195,-4.69781 -1.18251,0 -1.20215,0.12514 -0.29493,1.87949 1.32996,2.57189 14.74662,14.17982 23.06094,19.95211 8.46134,5.87434 10.96304,7.44149 11.90744,7.45906 0.31491,0.006 1.11256,0.4331 1.77256,0.94934 0.66,0.51624 1.70102,0.94344 2.31338,0.94934 0.87696,0.009 1.08082,-0.21432 0.96,-1.04889 z M 507.84,940.73774 c 3.828,-0.77539 8.256,-1.70136 9.84,-2.05771 3.13286,-0.70478 11.94518,-3.55493 14.64,-4.73501 0.924,-0.40464 3.084,-1.32369 4.8,-2.04235 8.10576,-3.39485 16.61045,-8.10941 25.782,-14.29238 1.64006,-1.10563 5.07283,-3.19829 7.62835,-4.65029 2.55552,-1.452 5.91893,-3.45 7.47423,-4.44 1.55529,-0.99 2.94292,-1.8 3.08366,-1.8 0.14069,0 0.96379,-0.54 1.82909,-1.2 0.86529,-0.66 1.75771,-1.2 1.98317,-1.2 0.43128,0 2.65896,-1.43899 13.06368,-8.43859 3.5003,-2.35479 7.2922,-4.82141 8.4264,-5.48141 1.13424,-0.66 3.77836,-2.23459 5.87582,-3.4991 2.0975,-1.26452 4.1376,-2.48434 4.5336,-2.71076 0.396,-0.22641 2.772,-1.59796 5.28,-3.0479 4.56658,-2.6401 8.68603,-4.87963 16.32,-8.87237 7.71533,-4.03531 10.32269,-5.42342 11.52,-6.13281 1.55779,-0.92304 17.15606,-8.37706 17.52979,-8.37706 1.10611,0 21.35607,-9.5244 24.95021,-11.73514 1.32,-0.81192 2.832,-1.73443 3.36,-2.04998 4.15939,-2.48587 5.78616,-3.58642 9.58781,-6.48643 4.87656,-3.71995 13.21219,-11.2417 13.21219,-11.92215 0,-0.24547 -0.41784,-0.4463 -0.92856,-0.4463 -0.87413,0 -3.01392,1.37112 -13.87781,8.89253 -8.01691,5.55038 -15.92726,9.92155 -24.31363,13.43549 -14.21626,5.95665 -20.04302,8.72294 -40.8,19.3702 -19.52069,10.01309 -24.84432,12.94556 -35.28,19.43357 -2.244,1.39512 -6.132,3.79728 -8.64,5.33813 -2.508,1.5409 -7.692,4.85347 -11.52,7.36138 -3.828,2.50785 -8.148,5.3112 -9.6,6.22953 -3.38578,2.14147 -6.59155,4.18522 -10.8,6.88531 -6.11318,3.92213 -8.24016,5.21386 -8.58509,5.21386 -0.18758,0 -1.51425,0.75053 -2.94825,1.66781 -5.48199,3.50683 -18.26837,9.64569 -23.98666,11.5163 -2.112,0.69087 -4.272,1.45555 -4.8,1.6993 -0.84898,0.39187 -3.73498,1.11744 -14.4,3.6204 -8.79893,2.06496 -23.82259,2.82053 -33.6,1.68979 -5.97408,-0.69091 -23.1247,-3.9167 -27.12,-5.10086 -1.452,-0.43037 -3.936,-1.22175 -5.52,-1.75858 -1.584,-0.53683 -5.98463,-2.02862 -9.77916,-3.31512 -3.79454,-1.28645 -7.2918,-2.33904 -7.77168,-2.33904 -1.91002,0 -1.59741,2.214 0.38279,2.71099 0.66334,0.16647 2.96151,1.03575 5.10706,1.93171 4.3679,1.82396 12.47409,4.62692 19.83775,6.85954 19.92999,6.04258 41.63199,7.63622 58.22324,4.2755 z M 310.91871,928.32 c 0.0698,-0.396 -1.60804,-2.772 -3.72856,-5.28 -6.96822,-8.24155 -13.0695,-16.39579 -19.02452,-25.42584 -3.22596,-4.89178 -6.31093,-9.46834 -6.85551,-10.1701 -0.56283,-0.72528 -0.99012,-1.99142 -0.99012,-2.934 0,-1.1196 -0.46762,-2.24649 -1.44,-3.47006 -0.792,-0.99662 -1.44,-2.00554 -1.44,-2.24213 0,-0.61718 -5.80135,-10.16894 -6.43225,-10.59053 -0.93212,-0.62284 -1.65483,-0.39326 -1.97921,0.62876 -0.22438,0.70694 0.75596,3.11044 3.37724,8.28 2.03136,4.00612 3.96224,7.6079 4.29084,8.0039 0.3286,0.396 0.73765,1.044 0.909,1.44 0.17135,0.396 1.16487,2.016 2.20782,3.6 1.04295,1.584 2.36699,3.744 2.94232,4.8 1.99803,3.66739 10.71943,16.22194 13.83946,19.92211 1.08063,1.28155 1.96478,2.46624 1.96478,2.63256 0,0.33135 6.02711,7.69863 8.36593,10.22616 1.54933,1.67439 3.74362,1.99267 3.99278,0.57917 z M 409.92,919.76366 c 0,-0.80025 -3.60791,-3.49286 -7.46345,-5.56996 -1.30711,-0.70421 -3.56455,-2.01898 -5.01655,-2.92172 -1.452,-0.90273 -2.964,-1.7914 -3.36,-1.97481 -0.396,-0.18341 -2.17861,-1.26634 -3.96136,-2.40653 -1.78274,-1.14014 -3.83474,-2.22077 -4.56,-2.40134 -0.72525,-0.18058 -1.57098,-0.67018 -1.8794,-1.08807 -0.67708,-0.91733 -1.2621,-0.49205 -0.83918,0.61008 0.16646,0.43378 0.81954,0.78869 1.4513,0.78869 0.68975,0 1.14864,0.28142 1.14864,0.70445 0,0.63969 4.68681,4.57555 5.44854,4.57555 0.17672,0 1.45309,0.80016 2.83638,1.77811 2.65962,1.88026 14.57613,8.19312 15.59508,8.26157 0.33,0.0221 0.6,-0.13805 0.6,-0.35602 z m 263.08147,-8.80113 c 0.97488,-1.8216 -0.3036,-9.56947 -2.03712,-12.34527 -0.85339,-1.36656 -3.4079,-2.2018 -4.66929,-1.52673 -0.52359,0.28022 -1.4654,0.50947 -2.093,0.50947 -1.27012,0 -3.24206,1.59418 -3.24206,2.62094 0,0.365 1.43472,2.13855 3.18826,3.94133 1.75353,1.80274 3.74952,4.14173 4.43548,5.19773 0.68602,1.056 1.4653,2.07869 1.73175,2.27266 0.91766,0.66792 2.13201,0.36499 2.68598,-0.67013 z m 60.23352,-24.76987 c 0.2833,-0.19397 0.66576,-0.75999 0.84994,-1.2578 0.30969,-0.83688 0.25473,-0.8519 -0.72869,-0.19891 -1.1065,0.73469 -1.73098,1.82947 -1.03622,1.81671 0.21998,-0.005 0.63172,-0.16604 0.91497,-0.36 z M 737.04,882.24 c 0.16315,-0.264 0.1489,-0.71904 -0.0317,-1.01126 -0.32261,-0.522 -1.14355,0.27792 -1.16098,1.13126 -0.0106,0.52613 0.84663,0.43987 1.19266,-0.12 z m 2.55029,-2.64 c 0.57384,-0.66 1.31477,-1.21454 1.64654,-1.2323 0.33173,-0.0178 2.00717,-1.6753 3.72317,-3.68348 1.716,-2.00817 3.92674,-4.53168 4.9127,-5.60774 1.68428,-1.83816 4.1772,-4.86835 6.3673,-7.73962 0.528,-0.6922 1.63018,-1.99267 2.4493,-2.88988 0.81912,-0.89722 2.10331,-2.55284 2.85379,-3.67916 0.75043,-1.12632 1.9428,-2.69582 2.64969,-3.48782 0.70685,-0.792 2.08551,-2.628 3.06365,-4.08 0.9781,-1.452 2.24755,-3.19123 2.82096,-3.86496 1.85741,-2.18232 3.20261,-4.24104 3.20261,-4.90142 0,-0.35492 0.756,-1.37804 1.68,-2.27362 0.924,-0.89558 1.68,-1.8769 1.68,-2.18074 0,-0.30379 0.432,-1.05048 0.96,-1.65926 0.528,-0.60878 0.96,-1.30978 0.96,-1.55774 0,-0.24797 0.432,-1.00004 0.96,-1.67127 1.13458,-1.4424 1.21541,-2.05099 0.27235,-2.05099 -0.37819,0 -0.83155,0.45331 -1.00737,1.00738 -0.17588,0.55406 -0.6312,1.36406 -1.01189,1.8 -0.38069,0.43593 -1.54738,1.75507 -2.59263,2.9314 -1.04524,1.17629 -1.90046,2.34024 -1.90046,2.58653 0,0.24629 -1.15162,1.87589 -2.55917,3.62127 -1.4076,1.74537 -3.18139,4.03742 -3.94185,5.09342 -0.76042,1.056 -1.77509,2.3123 -2.25485,2.79178 -0.47971,0.47947 -1.37904,1.66747 -1.99853,2.64 -0.61944,0.97252 -1.69315,2.37336 -2.38594,3.11294 -0.69283,0.73963 -1.25966,1.46923 -1.25966,1.62139 0,0.15216 -1.46342,2.03103 -3.25205,4.17528 -1.78862,2.14421 -3.62457,4.48493 -4.0799,5.20162 -0.45533,0.71664 -1.26706,1.79664 -1.80379,2.4 -3.40892,3.83179 -8.82672,10.32681 -9.48864,11.37513 -0.43124,0.68304 -1.28828,1.72786 -1.9046,2.32186 -0.71596,0.69014 -0.88286,1.08 -0.46233,1.08 0.36201,0 1.12771,-0.54 1.7016,-1.2 z m -436.3391,-15.14083 c 0.13151,-0.69096 -6.20899,-11.04787 -8.06833,-13.17917 -0.46062,-0.528 -2.38429,-3.4416 -4.27482,-6.47472 -1.89053,-3.03307 -3.76336,-5.69717 -4.16184,-5.92018 -1.97626,-1.10596 -2.852,1.46765 -1.21484,3.57015 0.49025,0.62961 1.70152,2.65128 2.69172,4.49256 0.99019,1.84133 3.23508,5.37245 4.98864,7.84694 1.75355,2.4745 3.70063,5.28802 4.32683,6.25219 1.85768,2.86032 3.55587,4.44327 4.60475,4.29226 0.53179,-0.0766 1.03034,-0.47256 1.10789,-0.88003 z M 250.56,839.27938 c 0,-0.70954 -0.86123,-2.90391 -2.44881,-6.23938 -0.50262,-1.056 -0.91326,-2.16389 -0.91252,-2.46202 9.6e-4,-0.29808 -0.55589,-1.81008 -1.23694,-3.36 -0.68104,-1.54987 -1.42309,-3.24998 -1.64898,-3.77798 -1.89864,-4.43784 -2.39314,-5.71368 -2.39571,-6.18101 -10e-4,-0.29645 -0.35162,-1.18699 -0.77776,-1.97899 -0.42614,-0.792 -0.95265,-2.088 -1.17,-2.88 -0.51737,-1.8852 -1.73703,-5.64014 -2.80637,-8.64 -0.90037,-2.52581 -1.88889,-5.7731 -3.21461,-10.56 -0.72322,-2.61139 -1.97675,-6.84706 -3.76445,-12.72 -0.36162,-1.188 -0.80925,-3.348 -0.99475,-4.8 -0.21301,-1.66742 -0.68637,-2.97067 -1.28491,-3.5376 -0.93931,-0.88963 -0.94485,-0.87274 -0.62932,1.92 1.45967,12.91973 9.84857,41.77248 16.31029,56.0976 0.59542,1.32 1.23286,2.94 1.41652,3.6 0.65449,2.3519 1.91035,5.05632 2.83337,6.10142 0.73151,0.82829 1.13375,0.9564 1.83119,0.58316 0.49157,-0.26309 0.89376,-0.78744 0.89376,-1.1652 z m 384.96,-8.6928 c 1.188,-0.60005 2.41915,-1.51522 2.73595,-2.03376 0.31675,-0.5185 2.36875,-1.85496 4.56,-2.96991 2.1912,-1.11494 4.63205,-2.54837 5.42405,-3.18537 0.792,-0.63701 1.93526,-1.52708 2.54059,-1.97789 6.59578,-4.91203 26.90347,-24.29568 36.85354,-35.17666 9.68496,-10.59101 12.05625,-13.22414 17.29406,-19.20369 3.14151,-3.58642 6.57581,-7.65024 7.63181,-9.03077 1.056,-1.38058 2.784,-3.53808 3.84,-4.79453 1.056,-1.25645 2.67293,-3.34862 3.59323,-4.64923 5.63323,-7.96147 8.04787,-11.45765 10.4184,-15.08477 1.46659,-2.244 3.28795,-5.00434 4.04746,-6.13402 0.7595,-1.12972 1.38091,-2.18736 1.38091,-2.35032 0,-0.16296 0.7261,-1.39867 1.61357,-2.74598 4.17173,-6.33331 12.70464,-24.59083 16.62398,-35.56968 2.6148,-7.32446 6.90163,-22.17658 8.65906,-30 3.78269,-16.83922 3.72897,-24.39802 -0.22426,-31.5683 -2.54755,-4.62068 -6.81038,-6.42154 -11.02848,-4.65908 -2.41056,1.00719 -7.81809,4.52074 -11.61624,7.54762 -3.44453,2.74507 -18.28334,17.28024 -28.53749,27.95352 -3.54758,3.69254 -10.44614,10.8263 -15.33014,15.85282 -19.28774,19.85044 -26.8499,27.95323 -33.82694,36.24523 -2.1048,2.50152 -6.21423,7.24819 -9.132,10.54819 -10.05053,11.36698 -14.62421,17.21074 -20.47445,26.16 -3.59218,5.49509 -3.79128,5.84371 -6.46114,11.31422 -3.16944,6.49416 -5.93731,14.388 -7.64601,21.80578 -2.49658,10.8384 -3.12591,14.49533 -3.38564,19.67371 -0.49041,9.77775 1.68816,20.1924 5.57448,26.64845 3.48572,5.79053 8.3809,9.51734 11.5117,8.76413 0.66,-0.15879 2.172,-0.77967 3.36,-1.37971 z m 147.10766,-5.92272 c 0.40277,-0.7789 0.70728,-1.8049 0.67666,-2.28 -0.0517,-0.80213 -0.0714,-0.80386 -0.27518,-0.024 -0.12077,0.462 -0.41415,0.84 -0.65199,0.84 -0.23789,0 -0.76761,0.648 -1.17715,1.44 -0.65626,1.26902 -0.65918,1.44 -0.0245,1.44 0.396,0 1.04957,-0.6373 1.45234,-1.41615 z m 2.40653,-4.83327 c -0.26909,-0.43541 -0.4475,-0.42211 -0.74251,0.0553 -0.50606,0.81883 -0.009,1.62336 0.61666,0.99782 0.264,-0.264 0.32064,-0.7379 0.12585,-1.05307 z m 4.8937,-8.24059 c -0.15322,-0.3829 -0.26698,-0.26918 -0.29002,0.29002 -0.0206,0.50596 0.0926,0.7895 0.25215,0.63 0.1595,-0.15951 0.17654,-0.57351 0.0379,-0.92002 z M 1102.08,811.2 c 0,-0.264 -0.2032,-0.48 -0.4517,-0.48 -0.2484,0 -0.5851,0.216 -0.7483,0.48 -0.1632,0.264 0.04,0.48 0.4517,0.48 0.4115,0 0.7483,-0.216 0.7483,-0.48 z m 1.4327,-6.6 c -0.01,-1.64904 -0.1362,-2.08075 -0.4727,-1.56 -0.7649,1.18368 -0.5436,3.84 0.32,3.84 0.088,0 0.1567,-1.026 0.1527,-2.28 z m 1.6688,-6.16402 c 0.3469,-2.31288 0.181,-2.9014 -0.6696,-2.37571 -0.6149,0.38002 -0.6941,4.57973 -0.086,4.57973 0.234,0 0.5742,-0.99178 0.756,-2.20402 z m 2.1785,-10.14278 c 0,-1.76856 -0.01,-1.77571 -0.7617,-0.69936 -0.6034,0.86146 -0.641,1.23269 -0.1812,1.7868 0.8414,1.01376 0.9429,0.89669 0.9429,-1.08744 z m 1.3756,-9.6132 -0.064,-4.2 -0.4625,3.49176 c -0.4251,3.20938 -0.3087,4.90824 0.3361,4.90824 0.1403,0 0.2262,-1.89 0.1907,-4.2 z m -845.40629,0.0754 c -0.16138,-0.42053 -0.41615,-1.33853 -0.56616,-2.04 -0.15002,-0.70147 -0.5766,-2.03141 -0.94795,-2.95541 -0.57582,-1.43275 -3.78633,-12.20285 -5.5088,-18.48 -0.6692,-2.43874 -1.62227,-5.92498 -2.62445,-9.6 -0.43196,-1.584 -1.19339,-4.068 -1.69208,-5.52 -0.49868,-1.452 -1.05403,-3.612 -1.23409,-4.8 -0.18007,-1.188 -0.50421,-2.50594 -0.72032,-2.92872 -1.7497,-3.42307 -5.3169,-27.99394 -6.195,-42.67128 -0.24481,-4.092 -0.71457,-10.896 -1.0439,-15.12 -0.5024,-6.4439 -0.65299,-7.29374 -0.93562,-5.28 -0.64986,4.63027 -0.39366,17.3784 0.55468,27.6 0.98345,10.60003 1.16419,11.97998 2.86047,21.84 0.54502,3.168 1.20885,7.164 1.4752,8.88 0.72676,4.6824 4.91245,22.05864 6.70626,27.84 0.65953,2.12563 1.81634,6.2556 2.62176,9.36 0.70449,2.71536 1.37875,4.69234 2.78304,8.16 2.211,5.45966 2.80805,6.48 3.79183,6.48 0.68882,0 0.8838,-0.2208 0.67513,-0.76459 z M 1110.3484,768.6 c 0.1212,-1.782 0.052,-3.672 -0.1536,-4.2 -0.4495,-1.15397 -0.3997,-1.38869 -0.739,3.48 -0.1724,2.47387 -0.098,3.96 0.1982,3.96 0.2608,0 0.5733,-1.458 0.6944,-3.24 z m -830.13545,-1.00368 c 0.47601,-0.30206 0.23471,-1.47566 -1.08,-5.25274 -0.93112,-2.67504 -1.69428,-5.14267 -1.69591,-5.48366 -0.001,-0.34094 -0.30527,-1.19938 -0.67476,-1.90757 -0.36949,-0.70824 -0.8212,-2.00424 -1.0038,-2.88 -0.1826,-0.87581 -0.8348,-3.10435 -1.44934,-4.95235 -0.61453,-1.848 -1.46816,-4.764 -1.89695,-6.48 -0.42878,-1.716 -0.97808,-3.768 -1.22066,-4.56 -0.94731,-3.09288 -3.92075,-15.05472 -4.53406,-18.24 -1.3908,-7.22328 -1.8181,-9.21533 -2.5226,-11.76 -0.40199,-1.452 -0.87444,-3.87883 -1.04989,-5.39299 -0.17545,-1.51416 -0.58134,-3.01536 -0.90199,-3.336 -0.86128,-0.86131 -0.76859,4.60958 0.13701,8.08641 0.396,1.52036 0.72,3.81308 0.72,5.09496 0,1.28189 0.20105,2.70639 0.44677,3.16556 0.24573,0.45912 0.79774,2.98291 1.22668,5.60841 0.42895,2.62551 1.00533,5.49624 1.28084,6.37939 0.27551,0.88316 0.68116,2.71916 0.90144,4.08 0.75346,4.65476 2.55304,11.50431 6.07278,23.11426 1.20054,3.96 2.46252,8.172 2.80441,9.36 1.51026,5.24794 2.57907,6.53731 4.44003,5.35632 z m 850.13025,-12.22464 c 0.036,-2.71022 -0.1155,-4.12181 -0.4232,-3.93168 -0.2795,0.1727 -0.4563,2.54078 -0.4232,5.66832 0.067,6.30624 0.7574,4.88899 0.8464,-1.73664 z m -17.7185,-5.30678 c -0.014,-2.27175 -0.071,-2.39189 -0.72,-1.53317 -0.459,0.60686 -0.6982,2.02949 -0.6859,4.08 l 0.019,3.14827 0.7012,-1.6151 c 0.3857,-0.88834 0.6943,-2.72434 0.6859,-4.08 z M 1132.06,737.04 c 0.1789,-5.016 0.5072,-11.496 0.7297,-14.4 0.3922,-5.12098 0.1895,-17.50205 -0.3105,-18.96 -0.1358,-0.396 -0.308,-3.744 -0.3825,-7.44 -0.166,-8.22931 -0.6566,-12.51211 -1.3534,-11.81534 -0.3426,0.34262 -0.2963,4.11772 0.1492,12.15614 0.8821,15.91886 1.0948,28.12651 0.5161,29.62642 -0.6149,1.59384 -1.2253,20.06347 -0.733,22.17801 l 0.376,1.61477 0.3416,-1.92 c 0.1878,-1.056 0.4879,-6.024 0.6668,-11.04 z m -18.0901,-4.56 c 0.7004,-6.24192 -0.9673,-34.2877 -2.2834,-38.4 -0.2957,-0.924 -0.7272,-3.5893 -0.9588,-5.92291 -0.2315,-2.33362 -0.6456,-5.24962 -0.9202,-6.48 -0.2745,-1.23039 -0.7143,-3.53309 -0.9773,-5.11709 -1.2164,-7.32744 -3.2389,-15.61253 -4.8426,-19.83734 -0.7101,-1.87071 -0.873,-2.03391 -1.152,-1.15464 -0.1897,0.59745 -0.015,1.62388 0.4197,2.46417 0.4096,0.79205 0.7447,2.44839 0.7447,3.68074 0,2.36937 1.1747,9.38198 2.0448,12.20707 0.7972,2.58835 2.2644,11.25173 2.7639,16.32 0.2472,2.508 0.6824,5.964 0.9671,7.68 0.4884,2.94389 0.6718,4.3835 1.8343,14.4 0.2604,2.244 0.4806,10.776 0.4893,18.96 0.01,8.184 0.056,15.096 0.1047,15.36 0.078,0.42322 0.5882,-3.66552 1.7658,-14.16 z m -293.18449,6.36 c -0.0125,-1.13232 -0.0845,-1.2 -0.50597,-0.47621 -0.27029,0.46411 -0.35894,1.05811 -0.19709,1.32 0.49627,0.80304 0.71832,0.53655 0.70306,-0.84379 z m 1.30545,-5.76 c -0.12072,-0.462 -0.2195,-0.084 -0.2195,0.84 0,0.924 0.0988,1.302 0.2195,0.84 0.12077,-0.462 0.12077,-1.218 0,-1.68 z M 1129.972,677.26022 c -0.3829,-0.95904 -0.4768,-0.58804 -0.5016,1.97976 -0.017,1.73804 0.1316,3.32391 0.3296,3.52421 0.5556,0.56213 0.7036,-4.17235 0.172,-5.50397 z M 261.14825,658.30013 c 0.0526,-11.01831 -0.001,-12.19704 -0.50315,-10.95432 -0.22773,0.56419 -0.46437,3.91219 -0.52587,7.44 -0.16417,9.4176 -0.0405,12.20741 0.51662,11.65032 0.27145,-0.27144 0.49155,-3.76623 0.5124,-8.136 z m 823.41995,4.27733 c -0.3543,-1.35442 -0.9871,-3.12567 -1.4062,-3.93615 -0.4191,-0.81053 -0.762,-1.82073 -0.762,-2.24496 0,-1.56077 -10.9843,-24.01133 -11.9603,-24.44529 -1.2871,-0.5724 -1.5185,0.51878 -0.5763,2.71694 0.5154,1.20245 1.171,2.33078 1.4569,2.50747 0.2858,0.17664 0.5197,0.60557 0.5197,0.95314 0,0.69216 1.9395,5.08416 3.0873,6.99139 0.3973,0.66 1.6089,3.36 2.6925,6 4.3244,10.53523 5.4156,12.99499 6.1273,13.81133 1.1697,1.34174 1.5228,0.32937 0.8211,-2.35387 z M 262.55013,633.84 c 0.0934,-7.65672 0.0649,-8.16989 -0.42394,-7.656 -0.3926,0.41266 -0.84167,15.43426 -0.53022,17.736 0.25268,1.86734 0.89066,-4.87243 0.95416,-10.08 z m -17.78178,-1.2 c -0.25772,-0.4427 -0.39892,1.03632 -0.36662,3.84 l 0.0526,4.56 0.36661,-3.84 c 0.20165,-2.112 0.178,-4.164 -0.0525,-4.56 z m 864.32405,-8.00078 c -0.1676,-1.42551 -0.5043,-2.96247 -0.7483,-3.41549 -0.244,-0.45307 -1.5641,-3.36351 -2.9334,-6.46762 -1.3693,-3.10416 -3.5429,-7.48075 -4.8302,-9.72581 -1.2873,-2.245 -2.3405,-4.20868 -2.3405,-4.36372 0,-0.15504 -0.7308,-1.50245 -1.624,-2.99424 -0.8933,-1.4918 -3.2388,-5.41234 -5.2125,-8.71234 -3.4437,-5.75803 -4.9458,-8.1516 -7.0788,-11.28 -0.54,-0.792 -1.7687,-2.628 -2.7306,-4.08 -0.9617,-1.452 -2.7399,-3.9875 -3.9514,-5.63453 -1.2115,-1.64697 -3.7147,-5.06741 -5.5627,-7.60099 -5.5292,-7.58054 -7.4341,-9.80448 -8.398,-9.80448 -2.5832,0 -1.8913,1.24114 8.1592,14.63491 2.7713,3.69317 5.5156,7.36517 6.0984,8.16 1.7042,2.32411 9.3951,13.80418 10.202,15.22834 0.4061,0.71678 1.4676,2.55278 2.3589,4.08 0.8912,1.52721 2.1627,3.74875 2.8253,4.93675 1.3691,2.45453 9.8388,19.22328 13.039,25.81517 1.1686,2.4072 2.3289,4.25054 2.5785,4.09627 0.2572,-0.15898 0.3218,-1.40299 0.1491,-2.87222 z m -862.83351,-2.36765 c -0.33425,-1.11711 -0.415,-0.77621 -0.40942,1.72843 0.006,2.7601 0.0542,2.92061 0.41637,1.39157 0.22817,-0.96322 0.22508,-2.34451 -0.007,-3.12 z m 882.22111,0.0203 c 0,-0.61896 -0.756,-2.84481 -1.68,-4.9464 -0.924,-2.10153 -1.68,-4.02585 -1.68,-4.27622 0,-0.59947 -5.3265,-12.53362 -8.2418,-18.46599 -1.2641,-2.57222 -2.4439,-5.2571 -2.6219,-5.96644 -0.3358,-1.33776 -2.5489,-3.59045 -3.1577,-3.21418 -0.5889,0.36403 0.1424,3.13968 1.7542,6.65736 0.8467,1.848 1.9184,4.332 2.3816,5.52 0.4631,1.188 1.1493,2.77229 1.5248,3.52066 0.3756,0.74836 1.2376,2.80036 1.9158,4.56 0.6781,1.75963 1.9737,4.89153 2.879,6.9598 0.9053,2.06828 1.6481,4.12028 1.6507,4.56 0.01,1.31271 2.24,5.7049 3.1616,6.22066 1.2069,0.67546 2.1137,0.19099 2.1137,-1.12925 z M 263.36789,617.19 c -0.15322,-0.3829 -0.26696,-0.26918 -0.28999,0.29002 -0.0208,0.50596 0.0926,0.7895 0.2521,0.63 0.1595,-0.15951 0.17655,-0.57351 0.0379,-0.92002 z M 710.64,612.03595 c 3.41366,-1.31357 6.60734,-3.08851 6.55474,-3.64281 -0.0855,-0.90072 -2.50191,-0.77463 -4.10156,0.21398 -0.88358,0.5461 -1.86542,0.99288 -2.18188,0.99288 -0.31642,0 -1.28333,0.54 -2.14863,1.2 -0.86529,0.66 -1.82289,1.2 -2.12798,1.2 -0.30509,0 -0.55469,0.216 -0.55469,0.48 0,0.75331 1.93925,0.56448 4.56,-0.44405 z m -42.68818,-0.0702 c 2.52312,-0.45562 7.82516,-2.10835 10.52818,-3.28181 0.528,-0.2292 2.256,-0.95501 3.84,-1.61294 1.584,-0.65789 5.48832,-2.30199 8.67624,-3.65357 3.18797,-1.35159 6.02386,-2.45741 6.30202,-2.45741 0.9034,0 6.02097,-2.51155 9.82324,-4.82093 6.87341,-4.1747 15.38444,-12.06643 18.44463,-17.10245 3.15835,-5.19758 3.72029,-6.92054 3.73008,-11.43662 0.009,-3.87682 -0.17568,-4.78776 -1.79463,-8.88 -0.9922,-2.508 -2.04686,-5.05421 -2.34369,-5.65824 l -0.53962,-1.09819 -1.22577,1.22573 c -1.36944,1.36948 -1.44336,2.35368 -0.76167,10.14475 0.33533,3.83213 0.25114,4.80734 -0.67939,7.8708 -1.16102,3.82243 -1.69166,4.80801 -4.52035,8.39515 -4.93363,6.25651 -14.97106,12.92304 -21.28983,14.13998 -1.26571,0.24375 -3.24643,0.78 -4.4016,1.1916 -1.15521,0.41165 -3.57244,0.74842 -5.37168,0.74842 -3.41918,0 -4.51416,0.5483 -2.86142,1.4328 0.53539,0.28656 0.97344,0.67882 0.97344,0.87178 0,0.913 -14.95704,9.12878 -18.01771,9.89697 -1.81373,0.45523 -5.02229,2.57909 -5.02229,3.32448 0,1.43597 1.68067,1.63205 6.51182,0.7597 z m 54.26957,-8.87463 c 3.70368,-1.49232 9.73987,-4.36872 19.85861,-9.4632 5.676,-2.85768 13.128,-6.47745 16.56,-8.04393 7.3235,-3.34263 25.41797,-12.41194 27.41563,-13.74125 1.55635,-1.0356 1.65096,-1.09214 7.62437,-4.55352 2.376,-1.37678 5.616,-3.29299 7.2,-4.25818 1.584,-0.96523 6.66,-3.88339 11.28,-6.48484 4.62,-2.60146 9.264,-5.28706 10.32,-5.96804 3.91339,-2.52355 21.83342,-10.9834 28.08,-13.2562 4.67525,-1.70108 7.59446,-2.79912 9.27125,-3.48735 0.74318,-0.30504 1.76481,-0.55459 2.2703,-0.55459 0.50544,0 1.73338,-0.30408 2.72875,-0.67574 6.56362,-2.45084 28.34616,-4.95514 37.8097,-4.34693 11.36237,0.73022 23.9123,2.51477 30.24,4.29998 13.2947,3.75077 19.54733,5.67773 24.96,7.69229 1.848,0.68779 4.44,1.64021 5.76,2.11646 8.15794,2.94336 10.50288,3.8904 11.20834,4.52664 0.4354,0.39269 1.97966,1.16055 3.43166,1.70626 1.452,0.54576 4.54982,2.06597 6.88402,3.37829 2.33424,1.31232 4.67064,2.52139 5.19206,2.68689 0.52142,0.16551 2.3916,1.11879 4.15598,2.11839 6.23944,3.53501 9.14134,4.73203 9.98184,4.11744 0.6661,-0.48706 0.4477,-0.84735 -1.6647,-2.74666 -1.3373,-1.2023 -3.17341,-2.53809 -4.08022,-2.96841 -0.90682,-0.43032 -2.77306,-1.53898 -4.14711,-2.46365 -1.37409,-0.92467 -2.74665,-1.68605 -3.05011,-1.69191 -0.30346,-0.006 -1.09176,-0.4331 -1.75176,-0.94934 -0.66,-0.51624 -1.50701,-0.94344 -1.88222,-0.94934 -0.37522,-0.006 -1.02322,-0.31541 -1.44,-0.68784 -0.81428,-0.72768 -9.54749,-4.5998 -10.37871,-4.60167 -0.27552,0 -1.67952,-0.63053 -3.12,-1.39977 -5.67854,-3.0325 -13.28721,-6.45552 -16.29907,-7.33282 -0.924,-0.26914 -2.22,-0.7583 -2.88,-1.08706 -1.54411,-0.7691 -5.52576,-2.14425 -7.68,-2.65243 -0.924,-0.21797 -4.056,-1.09219 -6.96,-1.9428 -12.36744,-3.62246 -15.3708,-4.22798 -28.32,-5.70969 -12.67018,-1.44984 -27.74189,-0.75332 -39.9505,1.84627 -2.31523,0.49301 -4.8575,1.15094 -5.6495,1.46217 -0.792,0.31119 -2.304,0.74943 -3.36,0.97388 -1.64678,0.35001 -7.69968,2.37484 -14.94302,4.99876 -2.82322,1.02274 -14.95239,6.4752 -20.33698,9.14218 -6.40238,3.17107 -9.49018,4.90147 -20.16,11.29766 -9.8377,5.89738 -21.15082,12.44429 -25.2,14.58327 -1.32,0.69729 -2.724,1.48229 -3.12,1.74446 -0.70277,0.46527 -10.81584,5.27597 -14.64,6.96413 -9.66989,4.26878 -22.09704,10.9139 -31.44,16.81181 -2.244,1.41657 -5.268,3.26553 -6.72,4.10885 -3.2485,1.88664 -7.73688,5.49312 -7.33565,5.8943 0.51576,0.51581 2.35613,0.32078 4.27704,-0.45322 z M 266.4,600.42336 c 0,-0.83779 -0.20074,-1.31597 -0.48,-1.14336 -0.264,0.16315 -0.48,0.94464 -0.48,1.73664 0,0.83779 0.20074,1.31597 0.48,1.14336 0.264,-0.16315 0.48,-0.94464 0.48,-1.73664 z m 1.1795,-9.03019 c 0.15189,-0.24576 0.0566,-0.58253 -0.21167,-0.74832 -0.26831,-0.16584 -0.48783,0.035 -0.48783,0.44683 0,0.84312 0.28803,0.96725 0.6995,0.30149 z M 251.36789,590.31 c -0.15322,-0.3829 -0.26696,-0.26918 -0.28999,0.29002 -0.0208,0.50596 0.0926,0.7895 0.2521,0.63 0.1595,-0.15951 0.17655,-0.57351 0.0379,-0.92002 z m 20.29751,-16.35 c -0.0124,-1.32562 -0.0905,-1.42944 -0.52016,-0.69086 -0.27807,0.47803 -0.38628,1.18003 -0.24047,1.56 0.44367,1.15622 0.77603,0.77644 0.76063,-0.86914 z m 1.30249,-7.65 c -0.15322,-0.3829 -0.26696,-0.26918 -0.28999,0.29002 -0.0208,0.50596 0.0926,0.7895 0.2521,0.63 0.1595,-0.15951 0.17655,-0.57351 0.0379,-0.92002 z m 772.36581,-1.27411 c 0.4619,-0.29314 0.2444,-0.85517 -0.8793,-2.27266 -4.605,-5.80853 -25.9215,-24.07704 -30.357,-26.01624 -1.7085,-0.74697 -1.6536,-0.75528 -2.2384,0.33754 -0.433,0.80913 0.1189,1.42166 4.4231,4.90805 6.8246,5.52787 17.03,14.35521 22.3109,19.29816 4.2458,3.97406 5.3837,4.60627 6.7407,3.74515 z m 56.1749,-3.79666 c 0.1939,-1.31265 -1.1094,-3.81317 -4.5509,-8.73149 -1.5388,-2.19902 -3.4141,-4.88683 -4.1676,-5.97297 -0.7534,-1.0861 -2.1678,-2.94677 -3.1432,-4.13477 -0.9753,-1.188 -2.2933,-2.916 -2.929,-3.84 -1.5591,-2.26661 -7.2663,-9.17251 -10.5372,-12.75058 -1.4634,-1.60084 -4.3887,-4.83729 -6.5007,-7.19217 -6.3017,-7.02634 -15.4387,-15.49191 -19.5431,-18.10699 -1.8673,-1.18968 -3.1797,-1.06522 -3.5311,0.33499 -0.4126,1.64395 0.072,2.27347 3.8742,5.03558 7.4621,5.42055 24.14,22.68907 32.4885,33.63917 3.5574,4.66589 7.5654,10.02586 10.409,13.92 5.7199,7.83317 6.8317,9.1836 7.4051,8.99486 0.3176,-0.10454 0.6443,-0.64257 0.726,-1.19563 z M 758.9329,558.5149 c 2.00908,-0.64935 5.57308,-2.08152 7.92,-3.18255 2.34691,-1.10107 4.74124,-2.18342 5.3208,-2.40523 1.13428,-0.43421 12.588,-6.99874 15.7463,-9.02482 1.056,-0.67742 2.892,-1.75012 4.08,-2.38372 1.188,-0.6336 2.60592,-1.55852 3.15096,-2.05532 0.54499,-0.4968 1.16722,-0.90326 1.38264,-0.90326 0.21547,0 1.38955,-0.70992 2.60909,-1.57762 2.01873,-1.43635 3.71736,-2.44478 13.49731,-8.01292 7.98101,-4.54388 11.29771,-6.30826 17.89186,-9.51773 3.90052,-1.89845 7.27641,-3.45173 7.50201,-3.45173 0.4753,0 5.448,-2.14128 7.32019,-3.15211 0.70076,-0.37834 1.67276,-0.68923 2.16,-0.69087 0.48725,0 1.52698,-0.3372 2.31048,-0.74577 3.92194,-2.04504 17.16672,-5.91879 24.25546,-7.09407 17.53464,-2.90716 38.77651,-2.42971 54.24,1.21916 1.188,0.28036 3.024,0.66288 4.08,0.85012 2.09875,0.37215 17.7287,5.50469 19.07347,6.26333 0.45845,0.25863 1.12824,0.47021 1.48853,0.47021 0.36024,0 1.67064,0.54 2.91192,1.2 1.24128,0.66 2.47483,1.2 2.74118,1.2 0.2664,0 1.71298,0.56798 3.21461,1.26226 1.50168,0.69422 4.13429,1.89302 5.85029,2.66395 1.716,0.77097 3.444,1.58837 3.84,1.81651 0.396,0.2281 3.5675,1.8373 7.04784,3.576 5.96213,2.97859 7.97165,3.64339 8.46749,2.80128 0.60413,-1.0261 -1.01083,-2.5692 -5.50147,-5.25662 -4.5638,-2.73125 -19.12556,-10.22338 -19.87023,-10.22338 -0.1752,0 -0.99917,-0.31166 -1.8311,-0.69264 -2.58144,-1.18214 -10.07655,-4.10736 -10.52395,-4.10736 -0.23367,0 -1.75767,-0.51067 -3.38669,-1.13482 -1.62907,-0.62414 -5.01389,-1.71974 -7.52189,-2.43465 -2.508,-0.71491 -5.1,-1.52107 -5.76,-1.79146 -1.66714,-0.68304 -4.52054,-1.21017 -17.81458,-3.29126 -8.6723,-1.35759 -25.48267,-1.33786 -35.34916,0.0413 -9.72356,1.35936 -21.37656,4.27061 -30.83626,7.70381 -7.83677,2.84419 -11.42664,4.23523 -12.72,4.92878 -0.792,0.4247 -1.59907,0.77357 -1.79347,0.77515 -0.46666,0.005 -14.91581,7.10338 -19.80653,9.73176 -3.31512,1.78162 -11.13206,6.34795 -20.04053,11.70677 -4.29859,2.58581 -16.75776,9.48139 -18.70622,10.35302 -1.63071,0.72951 -1.88549,0.74165 -2.13111,0.10162 -0.38544,-1.00445 0.15658,-4.25971 1.2338,-7.41019 2.08276,-6.09135 2.58556,-8.57035 2.29982,-11.33899 -0.27845,-2.69784 0.18226,-4.50101 1.14998,-4.50101 1.06176,0 13.71423,-5.65224 24.43426,-10.91549 13.0405,-6.40253 20.17382,-9.78758 24.23914,-11.50248 1.58352,-0.66797 3.30561,-1.5132 3.8268,-1.87829 0.52123,-0.36504 1.20657,-0.66374 1.52304,-0.66374 0.31641,0 3.02236,-1.16712 6.01315,-2.59354 4.87521,-2.32521 7.99253,-3.60787 18.63787,-7.66867 12.02453,-4.58688 34.5563,-8.45326 49.2,-8.4425 4.88419,0.003 17.23704,1.25315 25.92,2.62194 2.64,0.41619 5.124,0.80307 5.52,0.85971 0.41837,0.0599 0.78288,-0.33893 0.8701,-0.95183 0.30384,-2.13538 -5.20176,-3.67046 -20.36612,-5.67853 -10.65307,-1.41069 -23.82571,-0.71215 -40.74398,2.16062 -8.68219,1.47426 -22.92149,5.81187 -32.4,9.86979 -3.3,1.41278 -8.268,3.53424 -11.04,4.71432 -10.39056,4.42344 -17.60194,7.62662 -20.16,8.95483 -3.62731,1.88333 -12.97142,6.29727 -17.04,8.04922 -4.81272,2.07245 -9.92011,3.65265 -18.96,5.86617 -4.356,1.06661 -8.892,2.23964 -10.08,2.60669 -1.188,0.36711 -3.132,0.91747 -4.32,1.22314 -5.18218,1.3332 -7.20082,2.04869 -11.03774,3.91224 -6.95247,3.37675 -11.28154,6.78413 -16.07996,12.6564 -3.18384,3.89635 -5.5223,10.41729 -5.5223,15.39926 0,3.65683 2.47608,6.95664 6.72,8.95551 3.3073,1.55769 5.00381,1.78166 11.76,1.55246 4.90258,-0.16632 7.02293,-0.46474 9.8929,-1.39234 z m -14.76408,-6.00077 c -1.09512,-0.17914 -2.75602,-0.90912 -3.69092,-1.62216 -4.28601,-3.26909 -1.94457,-11.24919 5.11143,-17.42064 C 747.61061,531.70349 754.56082,528 755.8573,528 c 0.50088,0 1.12219,-0.21149 1.38062,-0.46992 0.66576,-0.66576 8.10984,-2.01182 10.15642,-1.83653 1.19304,0.10215 2.00054,0.53688 2.67004,1.43746 0.88426,1.18944 0.91268,1.51056 0.3614,4.08 -0.32909,1.53393 -0.78504,3.69629 -1.01314,4.80518 -0.2281,1.10885 -0.62011,2.40485 -0.87115,2.88 -0.25099,0.47511 -0.81115,1.87344 -1.24474,3.10738 -1.38336,3.93696 -3.26558,6.00187 -7.11278,7.80307 -5.47503,2.56334 -11.0916,3.51288 -16.01515,2.70749 z M 994.3691,502.00056 c 0.5966,-0.96528 -1.84329,-2.59987 -12.0491,-8.0723 -4.57603,-2.45367 -6.0959,-3.22071 -8.4,-4.23917 -1.188,-0.52512 -3.82786,-1.73199 -5.86632,-2.68191 -2.03851,-0.94996 -3.87451,-1.72819 -4.08,-1.72939 -0.20554,0 -1.66968,-0.53611 -3.25368,-1.18862 -3.5712,-1.47111 -5.77757,-1.56163 -6.47122,-0.26554 -0.59784,1.11706 0.38756,1.92235 3.83909,3.13752 3.73887,1.31631 10.64227,4.4737 25.67213,11.74162 8.60928,4.16318 9.83818,4.54517 10.6091,3.29779 z M 1034.4,487.71485 c 0,-0.50885 -0.594,-1.36378 -1.32,-1.89989 -4.7615,-3.516 -5.5346,-4.0644 -12.6,-8.93779 -3.917,-2.70175 -13.6921,-9.14281 -16.6932,-10.99955 -1.8778,-1.16169 -6.36955,-3.38995 -12.46272,-6.18238 -1.39142,-0.63767 -3.48408,0.25978 -3.48408,1.49418 0,0.64244 1.29024,1.54653 4.63858,3.25029 6.50169,3.30828 6.58137,3.35389 11.86052,6.78705 2.6065,1.69508 5.2316,3.26917 5.8334,3.49799 0.6019,0.22882 1.2282,0.63271 1.3918,0.89753 0.1637,0.26483 3.3707,2.45851 7.1266,4.87486 3.756,2.41632 8,5.23699 9.4311,6.26808 1.9434,1.4003 3.0671,1.87478 4.44,1.87478 1.4949,0 1.838,-0.1727 1.838,-0.92515 z m -81.15086,-39.84562 c 0.58156,-0.368 0.58771,-0.55825 0.0394,-1.21885 -1.05615,-1.27263 -1.80629,-1.52281 -10.58482,-3.53032 -13.17341,-3.01254 -15.94498,-3.49934 -20.45448,-3.59268 -3.61426,-0.0748 -4.24474,0.0288 -4.38422,0.72023 -0.23132,1.14625 1.20124,1.75761 5.50449,2.34907 2.06275,0.28351 3.95563,0.71524 4.20643,0.9594 0.2508,0.24415 1.08528,0.44392 1.85439,0.44392 0.76915,0 3.26395,0.43185 5.544,0.95967 2.28009,0.52782 5.98161,1.38425 8.22561,1.90317 6.50093,1.50334 8.88629,1.74223 10.04914,1.00639 z M 608.16,600.48 c 0,-0.264 0.216,-0.48 0.48,-0.48 0.264,0 0.48,0.216 0.48,0.48 0,0.264 -0.216,0.48 -0.48,0.48 -0.264,0 -0.48,-0.216 -0.48,-0.48 z m 1.44,-1.97866 c 0,-0.51268 5.05061,-8.64561 7.49088,-12.06244 0.89602,-1.25463 1.62912,-2.48439 1.62912,-2.73279 0,-0.24845 0.38174,-0.73392 0.84835,-1.07889 0.46656,-0.34498 1.25799,-1.27522 1.75867,-2.06722 0.50074,-0.792 1.81224,-2.52 2.91456,-3.84 2.11359,-2.53109 9.62151,-12.48859 13.09205,-17.36352 1.12949,-1.58659 2.53349,-3.39245 3.12,-4.01299 0.58651,-0.62059 1.49837,-1.71183 2.02637,-2.42496 2.01917,-2.72727 10.84978,-12.85973 14.69784,-16.86461 2.21218,-2.30237 4.88616,-5.2067 5.94216,-6.45418 2.77277,-3.27542 27.89539,-28.3068 37.73678,-37.59974 7.49568,-7.07794 11.46384,-10.58645 23.22322,-20.53332 8.3976,-7.10326 23.60904,-18.02528 27.73627,-19.91505 2.19591,-1.00544 3.22944,-1.04428 4.42987,-0.16649 0.87288,0.63826 0.84437,0.74011 -0.70512,2.52 -1.4795,1.69953 -22.84401,23.74522 -32.96395,34.01496 -6.25488,6.34752 -12.45605,12.15163 -21.31353,19.94889 -4.33042,3.81207 -8.21996,7.25501 -8.64341,7.65101 -0.42346,0.396 -4.10223,3.78682 -8.17503,7.53518 -6.73876,6.20194 -21.77937,21.18303 -32.91508,32.78482 -2.40725,2.508 -9.74828,9.82574 -16.31343,16.26163 -11.27957,11.05752 -16.38643,16.58055 -21.65515,23.41992 -2.07686,2.69602 -3.96144,4.1136 -3.96144,2.97979 z"
       id="path958" />
  </g>
</svg>
